<?xml version="1.0" encoding="UTF-8"?>
<svg xmlns="http://www.w3.org/2000/svg" xmlns:xlink="http://www.w3.org/1999/xlink" width="40pt" height="40pt" viewBox="0 0 40 40" version="1.1">
<g id="surface1">
<path style=" stroke:none;fill-rule:nonzero;fill:rgb(19.607843%,19.607843%,19.607843%);fill-opacity:1;" d="M 38.75 4.6875 L 1.25 4.6875 C 0.5625 4.6875 0 5.25 0 5.9375 L 0 30.9375 C 0 31.625 0.5625 32.1875 1.25 32.1875 L 17.8125 32.1875 L 17.8125 35 L 15.3125 35 C 15.125 35 15 35.125 15 35.3125 C 15 35.5 15.125 35.625 15.3125 35.625 L 24.6875 35.625 C 24.875 35.625 25 35.5 25 35.3125 C 25 35.125 24.875 35 24.6875 35 L 22.1875 35 L 22.1875 32.1875 L 38.75 32.1875 C 39.4375 32.1875 40 31.625 40 30.9375 L 40 5.9375 C 40 5.25 39.4375 4.6875 38.75 4.6875 Z M 1.25 5.3125 L 38.75 5.3125 C 39.09375 5.3125 39.375 5.59375 39.375 5.9375 L 39.375 7.1875 L 0.625 7.1875 L 0.625 5.9375 C 0.625 5.59375 0.90625 5.3125 1.25 5.3125 Z M 12.25 22.90625 L 11 21.6875 C 10.875 21.5625 10.84375 21.4375 10.84375 21.3125 C 10.84375 21.125 10.9375 20.90625 11.09375 20.75 L 12.0625 19.78125 C 12.21875 19.625 12.4375 19.53125 12.65625 19.53125 C 12.75 19.53125 12.90625 19.5625 13.03125 19.6875 L 14.28125 20.90625 L 14.6875 21.25 L 15.09375 21 C 16 20.4375 16.9375 20.03125 18 19.8125 L 18.4375 19.6875 L 18.4375 17.46875 C 18.4375 17.15625 18.90625 16.875 19.3125 16.875 L 20.6875 16.875 C 21.09375 16.875 21.5625 17.15625 21.5625 17.46875 L 21.5625 19.6875 L 22 19.78125 C 23.0625 20 24.03125 20.40625 24.9375 20.96875 L 25.34375 21.21875 L 25.6875 20.875 L 26.9375 19.65625 C 27.0625 19.53125 27.21875 19.5 27.3125 19.5 C 27.53125 19.5 27.75 19.59375 27.90625 19.75 L 28.875 20.71875 C 29.03125 20.875 29.125 21.09375 29.125 21.28125 C 29.125 21.375 29.09375 21.53125 28.96875 21.65625 L 27.71875 22.875 L 27.34375 23.21875 L 27.625 23.65625 C 28.21875 24.5625 28.625 25.5625 28.84375 26.59375 L 28.9375 27.125 L 31.21875 27.125 C 31.5625 27.125 31.84375 27.34375 31.84375 27.75 L 31.84375 28.6875 L 25.90625 28.6875 C 25.90625 28.59375 25.90625 28.5 25.90625 28.4375 C 25.90625 26.65625 25.0625 25.03125 23.75 23.96875 C 22.71875 23.125 21.40625 22.625 19.96875 22.625 C 16.6875 22.625 14.0625 25.21875 14.0625 28.40625 C 14.0625 28.5 14.0625 28.59375 14.0625 28.65625 L 8.125 28.65625 L 8.125 27.71875 C 8.125 27.3125 8.40625 27.09375 8.75 27.09375 L 11.03125 27.09375 L 11.125 26.5625 C 11.34375 25.53125 11.75 24.53125 12.34375 23.65625 L 12.625 23.21875 Z M 14.71875 28.5 C 14.71875 25.65625 17.09375 23.34375 20 23.34375 C 21.25 23.34375 22.4375 23.78125 23.375 24.53125 C 24.59375 25.53125 25.28125 26.96875 25.28125 28.5 C 25.28125 28.59375 25.28125 28.6875 25.28125 28.75 L 14.71875 28.75 C 14.71875 28.65625 14.71875 28.5625 14.71875 28.5 Z M 21.5625 32.1875 L 21.5625 35 L 18.4375 35 L 18.4375 32.1875 Z M 39.375 30.9375 C 39.375 31.28125 39.09375 31.5625 38.75 31.5625 L 1.25 31.5625 C 0.90625 31.5625 0.625 31.28125 0.625 30.9375 L 0.625 29.375 L 39.375 29.375 Z M 32.5 28.75 L 32.5 27.8125 C 32.5 27.0625 31.9375 26.5625 31.25 26.5625 L 29.46875 26.5625 C 29.21875 25.3125 28.78125 24.34375 28.15625 23.40625 L 29.40625 22.15625 C 29.875 21.6875 29.84375 20.84375 29.28125 20.3125 L 28.34375 19.375 C 28.0625 19.09375 27.6875 18.9375 27.3125 18.9375 C 27 18.9375 26.71875 19.03125 26.5 19.25 L 25.3125 20.46875 C 24.375 19.875 23.15625 19.4375 22.21875 19.1875 L 22.21875 17.46875 C 22.21875 16.8125 21.5 16.25 20.71875 16.25 L 19.34375 16.25 C 18.5625 16.25 17.84375 16.78125 17.84375 17.46875 L 17.84375 19.1875 C 16.90625 19.4375 15.6875 19.875 14.75 20.46875 L 13.53125 19.25 C 13.3125 19.03125 13.03125 18.9375 12.71875 18.9375 C 12.34375 18.9375 12 19.09375 11.6875 19.375 L 10.65625 20.3125 C 10.125 20.84375 10.0625 21.65625 10.5625 22.125 L 11.8125 23.40625 C 11.1875 24.34375 10.75 25.3125 10.5 26.5625 L 8.75 26.5625 C 8.0625 26.5625 7.5 27.0625 7.5 27.8125 L 7.5 28.75 L 0.625 28.75 L 0.625 7.8125 L 39.375 7.8125 L 39.375 28.75 Z M 32.5 28.75 "/>
<path style=" stroke:none;fill-rule:nonzero;fill:rgb(19.607843%,19.607843%,19.607843%);fill-opacity:1;" d="M 36.875 6.25 C 36.875 6.421875 36.734375 6.5625 36.5625 6.5625 C 36.390625 6.5625 36.25 6.421875 36.25 6.25 C 36.25 6.078125 36.390625 5.9375 36.5625 5.9375 C 36.734375 5.9375 36.875 6.078125 36.875 6.25 Z M 36.875 6.25 "/>
<path style=" stroke:none;fill-rule:nonzero;fill:rgb(19.607843%,19.607843%,19.607843%);fill-opacity:1;" d="M 35.625 6.25 C 35.625 6.421875 35.484375 6.5625 35.3125 6.5625 C 35.140625 6.5625 35 6.421875 35 6.25 C 35 6.078125 35.140625 5.9375 35.3125 5.9375 C 35.484375 5.9375 35.625 6.078125 35.625 6.25 Z M 35.625 6.25 "/>
<path style=" stroke:none;fill-rule:nonzero;fill:rgb(19.607843%,19.607843%,19.607843%);fill-opacity:1;" d="M 34.375 6.25 C 34.375 6.421875 34.234375 6.5625 34.0625 6.5625 C 33.890625 6.5625 33.75 6.421875 33.75 6.25 C 33.75 6.078125 33.890625 5.9375 34.0625 5.9375 C 34.234375 5.9375 34.375 6.078125 34.375 6.25 Z M 34.375 6.25 "/>
<path style=" stroke:none;fill-rule:nonzero;fill:rgb(19.607843%,19.607843%,19.607843%);fill-opacity:1;" d="M 2.1875 9.6875 L 4.78125 9.6875 C 4.96875 9.6875 5.09375 9.5625 5.09375 9.375 C 5.09375 9.1875 4.96875 9.0625 4.78125 9.0625 L 2.1875 9.0625 C 2 9.0625 1.875 9.1875 1.875 9.375 C 1.875 9.5625 2 9.6875 2.1875 9.6875 Z M 2.1875 9.6875 "/>
<path style=" stroke:none;fill-rule:nonzero;fill:rgb(19.607843%,19.607843%,19.607843%);fill-opacity:1;" d="M 12.1875 10.3125 L 4.09375 10.3125 C 3.90625 10.3125 3.78125 10.4375 3.78125 10.625 C 3.78125 10.8125 3.90625 10.9375 4.09375 10.9375 L 12.1875 10.9375 C 12.375 10.9375 12.5 10.8125 12.5 10.625 C 12.5 10.4375 12.375 10.3125 12.1875 10.3125 Z M 12.1875 10.3125 "/>
<path style=" stroke:none;fill-rule:nonzero;fill:rgb(19.607843%,19.607843%,19.607843%);fill-opacity:1;" d="M 2.1875 12.1875 L 4.125 12.1875 C 4.3125 12.1875 4.4375 12.0625 4.4375 11.875 C 4.4375 11.6875 4.3125 11.5625 4.125 11.5625 L 2.1875 11.5625 C 2 11.5625 1.875 11.6875 1.875 11.875 C 1.875 12.0625 2 12.1875 2.1875 12.1875 Z M 2.1875 12.1875 "/>
<path style=" stroke:none;fill-rule:nonzero;fill:rgb(19.607843%,19.607843%,19.607843%);fill-opacity:1;" d="M 2.1875 13.4375 L 5.09375 13.4375 C 5.28125 13.4375 5.40625 13.3125 5.40625 13.125 C 5.40625 12.9375 5.28125 12.8125 5.09375 12.8125 L 2.1875 12.8125 C 2 12.8125 1.875 12.9375 1.875 13.125 C 1.875 13.3125 2 13.4375 2.1875 13.4375 Z M 2.1875 13.4375 "/>
<path style=" stroke:none;fill-rule:nonzero;fill:rgb(19.607843%,19.607843%,19.607843%);fill-opacity:1;" d="M 10.375 14.0625 L 4.6875 14.0625 C 4.5 14.0625 4.375 14.1875 4.375 14.375 C 4.375 14.5625 4.5 14.6875 4.6875 14.6875 L 10.375 14.6875 C 10.5625 14.6875 10.6875 14.5625 10.6875 14.375 C 10.6875 14.1875 10.5625 14.0625 10.375 14.0625 Z M 10.375 14.0625 "/>
<path style=" stroke:none;fill-rule:nonzero;fill:rgb(19.607843%,19.607843%,19.607843%);fill-opacity:1;" d="M 7.28125 15.3125 L 3.75 15.3125 C 3.5625 15.3125 3.4375 15.4375 3.4375 15.625 C 3.4375 15.8125 3.5625 15.9375 3.75 15.9375 L 7.28125 15.9375 C 7.46875 15.9375 7.59375 15.8125 7.59375 15.625 C 7.59375 15.4375 7.46875 15.3125 7.28125 15.3125 Z M 7.28125 15.3125 "/>
<path style=" stroke:none;fill-rule:nonzero;fill:rgb(19.607843%,19.607843%,19.607843%);fill-opacity:1;" d="M 2.1875 17.1875 L 5.71875 17.1875 C 5.90625 17.1875 6.03125 17.0625 6.03125 16.875 C 6.03125 16.6875 5.90625 16.5625 5.71875 16.5625 L 2.1875 16.5625 C 2 16.5625 1.875 16.6875 1.875 16.875 C 1.875 17.0625 2 17.1875 2.1875 17.1875 Z M 2.1875 17.1875 "/>
<path style=" stroke:none;fill-rule:nonzero;fill:rgb(19.607843%,19.607843%,19.607843%);fill-opacity:1;" d="M 7.90625 18.125 C 7.90625 17.9375 7.78125 17.8125 7.59375 17.8125 L 5 17.8125 C 4.8125 17.8125 4.6875 17.9375 4.6875 18.125 C 4.6875 18.3125 4.8125 18.4375 5 18.4375 L 7.59375 18.4375 C 7.78125 18.4375 7.90625 18.3125 7.90625 18.125 Z M 7.90625 18.125 "/>
<path style=" stroke:none;fill-rule:nonzero;fill:rgb(19.607843%,19.607843%,19.607843%);fill-opacity:1;" d="M 4.125 19.0625 C 3.9375 19.0625 3.8125 19.1875 3.8125 19.375 C 3.8125 19.5625 3.9375 19.6875 4.125 19.6875 L 6.34375 19.6875 C 6.53125 19.6875 6.65625 19.5625 6.65625 19.375 C 6.65625 19.1875 6.53125 19.0625 6.34375 19.0625 Z M 4.125 19.0625 "/>
<path style=" stroke:none;fill-rule:nonzero;fill:rgb(19.607843%,19.607843%,19.607843%);fill-opacity:1;" d="M 2.1875 20.9375 L 6.3125 20.9375 C 6.5 20.9375 6.625 20.8125 6.625 20.625 C 6.625 20.4375 6.5 20.3125 6.3125 20.3125 L 2.1875 20.3125 C 2 20.3125 1.875 20.4375 1.875 20.625 C 1.875 20.8125 2 20.9375 2.1875 20.9375 Z M 2.1875 20.9375 "/>
<path style=" stroke:none;fill-rule:nonzero;fill:rgb(19.607843%,19.607843%,19.607843%);fill-opacity:1;" d="M 2.1875 22.1875 L 4.78125 22.1875 C 4.96875 22.1875 5.09375 22.0625 5.09375 21.875 C 5.09375 21.6875 4.96875 21.5625 4.78125 21.5625 L 2.1875 21.5625 C 2 21.5625 1.875 21.6875 1.875 21.875 C 1.875 22.0625 2 22.1875 2.1875 22.1875 Z M 2.1875 22.1875 "/>
<path style=" stroke:none;fill-rule:nonzero;fill:rgb(19.607843%,19.607843%,19.607843%);fill-opacity:1;" d="M 6.3125 25.3125 L 4.09375 25.3125 C 3.90625 25.3125 3.78125 25.4375 3.78125 25.625 C 3.78125 25.8125 3.90625 25.9375 4.09375 25.9375 L 6.3125 25.9375 C 6.5 25.9375 6.625 25.8125 6.625 25.625 C 6.625 25.4375 6.5 25.3125 6.3125 25.3125 Z M 6.3125 25.3125 "/>
<path style=" stroke:none;fill-rule:nonzero;fill:rgb(19.607843%,19.607843%,19.607843%);fill-opacity:1;" d="M 6.3125 26.5625 L 2.1875 26.5625 C 2 26.5625 1.875 26.6875 1.875 26.875 C 1.875 27.0625 2 27.1875 2.1875 27.1875 L 6.3125 27.1875 C 6.5 27.1875 6.625 27.0625 6.625 26.875 C 6.625 26.6875 6.5 26.5625 6.3125 26.5625 Z M 6.3125 26.5625 "/>
<path style=" stroke:none;fill-rule:nonzero;fill:rgb(19.607843%,19.607843%,19.607843%);fill-opacity:1;" d="M 7.6875 22.8125 L 5.0625 22.8125 C 4.875 22.8125 4.75 22.9375 4.75 23.125 C 4.75 23.3125 4.875 23.4375 5.0625 23.4375 L 7.6875 23.4375 C 7.875 23.4375 8 23.3125 8 23.125 C 8 22.9375 7.84375 22.8125 7.6875 22.8125 Z M 7.6875 22.8125 "/>
<path style=" stroke:none;fill-rule:nonzero;fill:rgb(19.607843%,19.607843%,19.607843%);fill-opacity:1;" d="M 2.1875 24.6875 L 5.71875 24.6875 C 5.90625 24.6875 6.03125 24.5625 6.03125 24.375 C 6.03125 24.1875 5.90625 24.0625 5.71875 24.0625 L 2.1875 24.0625 C 2 24.0625 1.875 24.1875 1.875 24.375 C 1.875 24.5625 2 24.6875 2.1875 24.6875 Z M 2.1875 24.6875 "/>
<path style=" stroke:none;fill-rule:nonzero;fill:rgb(19.607843%,19.607843%,19.607843%);fill-opacity:1;" d="M 37.8125 9.0625 L 35.21875 9.0625 C 35.03125 9.0625 34.90625 9.1875 34.90625 9.375 C 34.90625 9.5625 35.03125 9.6875 35.21875 9.6875 L 37.8125 9.6875 C 38 9.6875 38.125 9.5625 38.125 9.375 C 38.125 9.1875 38 9.0625 37.8125 9.0625 Z M 37.8125 9.0625 "/>
<path style=" stroke:none;fill-rule:nonzero;fill:rgb(19.607843%,19.607843%,19.607843%);fill-opacity:1;" d="M 36.21875 10.625 C 36.21875 10.4375 36.09375 10.3125 35.90625 10.3125 L 27.8125 10.3125 C 27.625 10.3125 27.5 10.4375 27.5 10.625 C 27.5 10.8125 27.625 10.9375 27.8125 10.9375 L 35.90625 10.9375 C 36.09375 10.9375 36.21875 10.8125 36.21875 10.625 Z M 36.21875 10.625 "/>
<path style=" stroke:none;fill-rule:nonzero;fill:rgb(19.607843%,19.607843%,19.607843%);fill-opacity:1;" d="M 37.8125 11.5625 L 35.875 11.5625 C 35.6875 11.5625 35.5625 11.6875 35.5625 11.875 C 35.5625 12.0625 35.6875 12.1875 35.875 12.1875 L 37.8125 12.1875 C 38 12.1875 38.125 12.0625 38.125 11.875 C 38.125 11.6875 38 11.5625 37.8125 11.5625 Z M 37.8125 11.5625 "/>
<path style=" stroke:none;fill-rule:nonzero;fill:rgb(19.607843%,19.607843%,19.607843%);fill-opacity:1;" d="M 37.8125 12.8125 L 34.90625 12.8125 C 34.71875 12.8125 34.59375 12.9375 34.59375 13.125 C 34.59375 13.3125 34.71875 13.4375 34.90625 13.4375 L 37.8125 13.4375 C 38 13.4375 38.125 13.3125 38.125 13.125 C 38.125 12.9375 38 12.8125 37.8125 12.8125 Z M 37.8125 12.8125 "/>
<path style=" stroke:none;fill-rule:nonzero;fill:rgb(19.607843%,19.607843%,19.607843%);fill-opacity:1;" d="M 35.625 14.375 C 35.625 14.1875 35.5 14.0625 35.3125 14.0625 L 29.625 14.0625 C 29.4375 14.0625 29.3125 14.1875 29.3125 14.375 C 29.3125 14.5625 29.4375 14.6875 29.625 14.6875 L 35.3125 14.6875 C 35.5 14.6875 35.625 14.5625 35.625 14.375 Z M 35.625 14.375 "/>
<path style=" stroke:none;fill-rule:nonzero;fill:rgb(19.607843%,19.607843%,19.607843%);fill-opacity:1;" d="M 36.5625 15.625 C 36.5625 15.4375 36.4375 15.3125 36.25 15.3125 L 32.71875 15.3125 C 32.53125 15.3125 32.40625 15.4375 32.40625 15.625 C 32.40625 15.8125 32.53125 15.9375 32.71875 15.9375 L 36.25 15.9375 C 36.4375 15.9375 36.5625 15.8125 36.5625 15.625 Z M 36.5625 15.625 "/>
<path style=" stroke:none;fill-rule:nonzero;fill:rgb(19.607843%,19.607843%,19.607843%);fill-opacity:1;" d="M 37.8125 16.5625 L 34.28125 16.5625 C 34.09375 16.5625 33.96875 16.6875 33.96875 16.875 C 33.96875 17.0625 34.09375 17.1875 34.28125 17.1875 L 37.8125 17.1875 C 38 17.1875 38.125 17.0625 38.125 16.875 C 38.125 16.6875 38 16.5625 37.8125 16.5625 Z M 37.8125 16.5625 "/>
<path style=" stroke:none;fill-rule:nonzero;fill:rgb(19.607843%,19.607843%,19.607843%);fill-opacity:1;" d="M 34.96875 17.8125 L 32.375 17.8125 C 32.1875 17.8125 32.0625 17.9375 32.0625 18.125 C 32.0625 18.3125 32.1875 18.4375 32.375 18.4375 L 34.96875 18.4375 C 35.15625 18.4375 35.28125 18.3125 35.28125 18.125 C 35.28125 17.9375 35.15625 17.8125 34.96875 17.8125 Z M 34.96875 17.8125 "/>
<path style=" stroke:none;fill-rule:nonzero;fill:rgb(19.607843%,19.607843%,19.607843%);fill-opacity:1;" d="M 33.375 19.375 C 33.375 19.5625 33.5 19.6875 33.6875 19.6875 L 35.90625 19.6875 C 36.09375 19.6875 36.21875 19.5625 36.21875 19.375 C 36.21875 19.1875 36.09375 19.0625 35.90625 19.0625 L 33.6875 19.0625 C 33.5 19.0625 33.375 19.1875 33.375 19.375 Z M 33.375 19.375 "/>
<path style=" stroke:none;fill-rule:nonzero;fill:rgb(19.607843%,19.607843%,19.607843%);fill-opacity:1;" d="M 37.8125 20.3125 L 33.6875 20.3125 C 33.5 20.3125 33.375 20.4375 33.375 20.625 C 33.375 20.8125 33.5 20.9375 33.6875 20.9375 L 37.8125 20.9375 C 38 20.9375 38.125 20.8125 38.125 20.625 C 38.125 20.4375 38 20.3125 37.8125 20.3125 Z M 37.8125 20.3125 "/>
<path style=" stroke:none;fill-rule:nonzero;fill:rgb(19.607843%,19.607843%,19.607843%);fill-opacity:1;" d="M 37.8125 21.5625 L 35.21875 21.5625 C 35.03125 21.5625 34.90625 21.6875 34.90625 21.875 C 34.90625 22.0625 35.03125 22.1875 35.21875 22.1875 L 37.8125 22.1875 C 38 22.1875 38.125 22.0625 38.125 21.875 C 38.125 21.6875 38 21.5625 37.8125 21.5625 Z M 37.8125 21.5625 "/>
<path style=" stroke:none;fill-rule:nonzero;fill:rgb(19.607843%,19.607843%,19.607843%);fill-opacity:1;" d="M 33.6875 25.9375 L 35.90625 25.9375 C 36.09375 25.9375 36.21875 25.8125 36.21875 25.625 C 36.21875 25.4375 36.09375 25.3125 35.90625 25.3125 L 33.6875 25.3125 C 33.5 25.3125 33.375 25.4375 33.375 25.625 C 33.375 25.8125 33.5 25.9375 33.6875 25.9375 Z M 33.6875 25.9375 "/>
<path style=" stroke:none;fill-rule:nonzero;fill:rgb(19.607843%,19.607843%,19.607843%);fill-opacity:1;" d="M 37.8125 26.5625 L 33.6875 26.5625 C 33.5 26.5625 33.375 26.6875 33.375 26.875 C 33.375 27.0625 33.5 27.1875 33.6875 27.1875 L 37.8125 27.1875 C 38 27.1875 38.125 27.0625 38.125 26.875 C 38.125 26.6875 38 26.5625 37.8125 26.5625 Z M 37.8125 26.5625 "/>
<path style=" stroke:none;fill-rule:nonzero;fill:rgb(19.607843%,19.607843%,19.607843%);fill-opacity:1;" d="M 35.25 23.125 C 35.25 22.9375 35.125 22.8125 34.9375 22.8125 L 32.3125 22.8125 C 32.125 22.8125 32 22.9375 32 23.125 C 32 23.3125 32.125 23.4375 32.3125 23.4375 L 34.9375 23.4375 C 35.09375 23.4375 35.25 23.3125 35.25 23.125 Z M 35.25 23.125 "/>
<path style=" stroke:none;fill-rule:nonzero;fill:rgb(19.607843%,19.607843%,19.607843%);fill-opacity:1;" d="M 37.8125 24.0625 L 34.28125 24.0625 C 34.09375 24.0625 33.96875 24.1875 33.96875 24.375 C 33.96875 24.5625 34.09375 24.6875 34.28125 24.6875 L 37.8125 24.6875 C 38 24.6875 38.125 24.5625 38.125 24.375 C 38.125 24.1875 38 24.0625 37.8125 24.0625 Z M 37.8125 24.0625 "/>
</g>
</svg>
