<svg height='100px' width='100px'  fill="#faaa10" xmlns="http://www.w3.org/2000/svg" xmlns:xlink="http://www.w3.org/1999/xlink" version="1.1" x="0px" y="0px" viewBox="0 0 95 95" enable-background="new 0 0 95 95" xml:space="preserve"><path d="M74.729,31.475c-2.375-0.738-5.253-0.526-8.628,0.632c-5.066,1.795-10.288,5.754-15.673,11.872  c-0.314,0.425-1.134,1.372-2.453,2.85c-1.321,1.48-2.215,2.511-2.69,3.087c-0.475,0.581-1.242,1.398-2.295,2.453  c-1.058,1.06-2.032,1.955-2.929,2.69c-0.898,0.74-1.821,1.425-2.771,2.06c-1.163,0.632-2.533,0.764-4.115,0.396  c-1.584-0.37-2.85-1.084-3.8-2.139c-2.322-2.638-2.587-5.908-0.792-9.815c1.266-2.849,4.167-6.857,8.707-12.03  c5.276-6.016,8.549-10.077,9.813-12.191c2.85-4.746,3.062-8.599,0.634-11.555c-2.429-2.952-5.698-3.904-9.814-2.85  c-3.273,0.846-6.807,2.903-10.606,6.175c-3.271,2.85-6.228,6.122-8.865,9.815c-2.638,3.695-4.272,6.86-4.907,9.496  c-0.209,0.951,0.186,1.559,1.188,1.821c1,0.267,1.661-0.132,1.979-1.187c0.527-2.107,2.002-4.88,4.432-8.311  c2.427-3.429,5.169-6.514,8.232-9.26c3.482-2.953,6.595-4.8,9.34-5.543c2.744-0.735,4.907-0.156,6.491,1.744  c1.582,1.901,1.317,4.589-0.792,8.071c-1.163,1.9-4.33,5.807-9.499,11.718c-4.749,5.485-7.811,9.759-9.182,12.82  c-2.322,5.173-1.847,9.604,1.425,13.299c1.371,1.48,3.167,2.479,5.383,3.006c2.216,0.528,4.326,0.214,6.332-0.949  c1.161-0.632,2.216-1.346,3.166-2.136c0.95-0.793,2.003-1.767,3.167-2.929l2.531-2.533c0.525-0.634,1.425-1.688,2.69-3.166  c1.267-1.478,2.058-2.376,2.375-2.691c5.066-5.802,9.815-9.55,14.249-11.239c5.063-1.792,8.492-0.896,10.288,2.691  c1.792,3.587,1.425,7.703-1.107,12.347c-0.74,1.372-1.849,3.114-3.325,5.224L71.8,56.801l-1.425,1.9l-1.108,1.584  c-4.646,6.753-7.282,13.613-7.915,20.576c-2.006-3.266-4.116-6.015-6.332-8.229c-0.74-0.735-1.479-0.735-2.217,0  c-0.738,0.737-0.738,1.478,0,2.215c2.85,2.85,5.541,6.81,8.074,11.874c0,0.106,0.051,0.212,0.157,0.315  c0.104,0.948,0.633,1.425,1.584,1.425h0.159c0.948,0.105,1.527-0.263,1.739-1.105c1.584-4.118,5.118-8.71,10.606-13.774  c0.737-0.635,0.766-1.346,0.08-2.139c-0.688-0.79-1.453-0.816-2.296-0.077c-3.695,3.272-6.49,6.385-8.391,9.34  c0.634-6.226,3.061-12.4,7.283-18.522c0.315-0.526,0.685-1.055,1.107-1.583l1.425-1.898c0.527-0.737,0.895-1.319,1.108-1.742  c1.582-2.106,2.796-3.901,3.642-5.382c1.369-2.638,2.16-5.329,2.374-8.073c0.21-2.741-0.214-5.17-1.267-7.282  C78.923,33.796,77.103,32.215,74.729,31.475z"></path></svg>