<svg height='100px' width='100px'  fill="#FFFFFF" xmlns="http://www.w3.org/2000/svg" xmlns:xlink="http://www.w3.org/1999/xlink" version="1.1" x="0px" y="0px" viewBox="0 0 32 32" enable-background="new 0 0 32 32" xml:space="preserve">
  <g>
    <g>
      <polygon points="17.83,16.8 2.29,16.8 12.01,22.62 12.37,22.26 17.33,17.3   "></polygon>
      <polygon points="19.06,16.8 18.98,17.07 18.91,17.3 17.22,22.89 20.07,22.89 20.07,22.39 20.07,17.3 20.07,16.8 19.25,16.8   "></polygon>
      <polygon points="15.65,26.41 16.56,23.39 16.71,22.89 18.24,17.81 18.54,16.8 17.8,17.54 12.45,22.89 12.54,23.5 13.35,29.25     13.35,29.26 13.46,30 15.49,26.95   "></polygon>
      <polygon points="15.57,27.74 14.4,29.5 14.06,30 18.54,30 15.85,27.31   "></polygon>
      <polygon points="25.45,15.28 23.82,11.2 23.28,11.2 21.07,11.2 20.57,11.2 20.57,16.3 20.57,22.89 21.07,22.89 23.09,22.89     23.62,22.89 25.65,15.78   "></polygon>
      <polygon points="27.68,10.7 27.68,7.66 23.62,6.64 20.95,10.2 20.57,10.7 24.16,10.7   "></polygon>
      <polygon points="28.08,15.78 26.17,15.78 26.03,16.28 24.89,20.25 24.48,21.69 26.77,18.49 27.06,18.08 28.7,15.78   "></polygon>
      <polygon points="28.86,16.42 28.47,16.96 27.47,18.35 29.71,19.84   "></polygon>
    </g>
  </g>
</svg>