<?xml version="1.0" encoding="UTF-8"?>
<svg width="39px" height="46px" viewBox="0 0 39 46" version="1.1" xmlns="http://www.w3.org/2000/svg" xmlns:xlink="http://www.w3.org/1999/xlink">
    <title>person</title>
    <g id="Projects" stroke="none" stroke-width="1" fill="none" fill-rule="evenodd">
        <g id="Desktop-HD" transform="translate(-255.000000, -96.000000)" fill="#000000" fill-rule="nonzero">
            <g id="getting-started" transform="translate(-6.000000, 5.000000)">
                <g id="Intro" transform="translate(250.000000, 83.000000)">
                    <g id="person" transform="translate(11.185185, 8.000000)">
                        <path d="M18.1022813,14.8311765 C18.5260786,14.9773124 19.2106743,14.9754083 19.2641964,14.9749323 C19.3162587,14.9754083 20.0008545,14.9773124 20.425625,14.8311765 C20.8664521,14.6798046 22.114489,14.1304861 24.0427427,14.0605123 C25.6951144,14.0010107 26.7820987,14.2580575 27.0959326,14.4370382 C27.1630784,14.4789273 27.2063826,14.5517572 27.2063826,14.6350594 L27.2063826,15.5261548 C27.2063826,15.6499181 27.1470218,15.7498807 26.9840228,15.8907804 C26.6901381,16.103558 26.6852724,16.3972577 26.6268847,16.8699381 C26.533951,17.6134697 26.4599933,19.2395284 23.9600268,19.4789627 C21.605543,19.7045927 20.6056537,18.4574399 20.2417037,17.5292155 C19.8826194,16.6138434 19.8899179,16.1640116 19.2651695,16.1621075 C18.639448,16.1640116 18.6467465,16.6138434 18.2881487,17.5292155 C17.9237122,18.4574399 16.9228498,19.7045927 14.5688526,19.4789627 C12.0683995,19.2395284 11.9954149,17.6134697 11.9029677,16.8699381 C11.8431203,16.3972577 11.8387412,16.103558 11.54437,15.8907804 C11.3818575,15.7498807 11.3229833,15.6503941 11.3229833,15.5261548 L11.3229833,14.6350594 C11.3229833,14.5517572 11.3658009,14.4789273 11.4329468,14.4370382 C11.7472672,14.2580575 12.8342515,14.0005347 14.4866232,14.0605123 C16.4129306,14.1309621 17.660481,14.6798046 18.1022813,14.8311765 Z M12.3968303,16.7813998 C12.4080213,18.3988903 13.5650708,19.1928792 14.9980021,19.1928792 C16.7822328,19.1928792 17.8371038,18.0666336 17.9475539,16.8394733 C18.0594636,15.5851804 18.388381,14.9192389 15.0739061,14.6850407 C13.6448673,14.5841261 12.3807737,14.7140775 12.3968303,16.7813998 Z M26.1305893,16.7813998 C26.1451863,14.7140775 24.8825524,14.5841261 23.4535135,14.6855167 C20.1385521,14.9197149 20.4669829,15.5856564 20.5798658,16.8399494 C20.6908024,18.0671096 21.7456734,19.1933552 23.5294175,19.1933552 C24.9608892,19.1933552 26.1189118,18.3988903 26.1305893,16.7813998 Z M17.6823764,16.0864215 C17.7003793,16.1225985 17.7154628,16.1582994 17.7324925,16.1973325 C17.7164359,16.1587754 17.7008658,16.1230745 17.6823764,16.0864215 Z M13.7105534,16.3210957 L13.0444472,16.1340228 C12.7213686,16.0431044 12.8600394,15.5675679 13.1840911,15.6584863 L13.6400016,15.7865337 C13.6594642,15.7589249 13.6794133,15.7327442 13.7013087,15.7070396 L13.4993846,15.6189773 C13.190903,15.4847417 13.3967196,15.0330059 13.7052012,15.1667654 L14.1100226,15.343366 C14.4228833,15.1396327 14.8121346,15.0101573 15.235932,14.9720763 C15.7541228,15.0134893 16.1642963,15.0653747 16.4893212,15.1258283 C16.6975706,15.1986582 16.8907366,15.2943367 17.0615206,15.4085797 C17.1510484,15.4685573 17.2269524,15.5280589 17.2970176,15.5913685 C17.3607575,15.64849 17.4162258,15.7056115 17.4682882,15.7660651 L17.4862911,15.7874857 L17.5149983,15.8227106 L17.5398131,15.8546035 L17.5646279,15.8884003 L17.5758189,15.9064888 L17.5874964,15.9245773 L17.6025799,15.9483779 L17.614744,15.9669424 L17.6249618,15.9845549 L17.6380991,16.0069275 L17.6483169,16.02692 L17.6595079,16.0464365 L17.6804302,16.0868976 C17.6989196,16.1235505 17.7144896,16.1592515 17.7300597,16.1959044 L17.7388178,16.218753 C17.7728773,16.3096714 17.7592535,16.3896415 17.7178956,16.4496191 C17.6599945,16.5362534 17.5495444,16.5814746 17.4478525,16.5690982 L17.4269302,16.5657661 L17.4011423,16.558626 L17.379247,16.5505337 C17.3583247,16.5410135 17.3432412,16.5324453 17.3291309,16.521497 C17.2892326,16.4896041 17.2600387,16.4515231 17.2410627,16.4001138 C17.2021376,16.2977711 17.140344,16.1968565 17.0586012,16.1016539 C16.8561905,15.8645997 16.5301926,15.6632464 16.1195324,15.5575716 C16.3117253,15.7013274 16.4275275,15.9340975 16.4095247,16.1868602 C16.3803308,16.5890908 16.0236793,16.8923107 15.6125326,16.86375 C15.2018725,16.8356652 14.8919311,16.4867481 14.921125,16.0849935 C14.9396144,15.8198545 15.1011537,15.5980327 15.3269195,15.4852177 C14.6909802,15.5290109 14.2102548,15.8193785 14.0127098,16.178768 C13.9591877,16.2915829 13.8531167,16.3615568 13.7105534,16.3210957 Z M24.9594295,15.7870097 L25.4158266,15.6589623 C25.5447661,15.6227854 25.6445118,15.6760988 25.6970607,15.7589249 C25.7111711,15.7955779 25.7252814,15.8331829 25.736959,15.8722159 C25.7496096,15.9797947 25.6970607,16.0940377 25.5554705,16.1340228 L24.8893643,16.3210957 C24.746801,16.3610808 24.6392703,16.2915829 24.5925601,16.1930484 C24.3867435,15.8193785 23.9055316,15.5294869 23.2700788,15.4856938 C23.4958446,15.5985087 23.6568973,15.8203306 23.6763599,16.0854695 C23.7045806,16.4872241 23.3951258,16.8361413 22.983006,16.864226 C22.5723459,16.8927867 22.2166675,16.5895668 22.1874737,16.1873362 C22.1694708,15.9345736 22.2847865,15.7018034 22.4764927,15.5580477 C21.901374,15.7056115 21.4921735,16.0426284 21.3559356,16.4005898 C21.2333214,16.7252303 20.7355663,16.5448216 20.858667,16.2201811 C21.0547524,15.7027555 21.5593194,15.3000489 22.190393,15.0996476 C22.497415,15.0491903 22.8710963,15.0053971 23.3289531,14.9696962 C23.7658877,15.0039691 24.1692493,15.1348725 24.4898951,15.343842 L24.8956896,15.1672414 C25.2036847,15.0330059 25.4095013,15.4852177 25.1005331,15.6194533 L24.8995821,15.7075156 C24.9200178,15.7332203 24.9404535,15.7594009 24.9594295,15.7870097 Z M15.1473773,27.1422882 C15.0383869,26.3997087 14.8471672,25.6933061 14.5250618,24.9378743 C14.3508718,24.815539 14.1839803,24.6836836 14.0263336,24.5404038 C13.1510047,23.7426068 12.4308898,22.4987861 11.5224746,20.0135248 C9.78446751,19.5403684 8.45955339,17.4778061 8.42987298,15.7732053 C8.40165226,14.1895117 9.74992145,13.8620151 10.7473779,14.5884102 C10.5172331,13.859635 10.3172552,13.1213396 10.201453,12.3882803 C9.74019017,9.46794354 9.34218072,4.98295363 12.0255819,2.52958513 C13.5042503,1.23340305 15.8723579,0.106681427 19.2938768,0.00148266093 C19.2938768,0.00148266093 19.6578268,-0.00946562691 20.2081308,0.0281393618 C22.0089046,0.150950591 24.5317396,0.700269033 25.3014841,2.50911659 C25.3331107,2.66572471 25.354033,2.83090105 25.365224,3.0041696 C25.5384408,5.91403411 24.5687185,8.07227485 22.994197,9.55886193 C21.7344825,10.3528508 20.1040061,10.7607935 18.2638205,10.9074054 C17.1680781,10.9954677 16.1857052,10.9840434 15.5332227,11.0149842 C13.7076341,11.1016185 12.4863581,12.070304 12.2712968,13.7177833 C12.262052,13.7863291 12.2581595,13.8444026 12.254267,13.8900998 C12.0586682,13.9248487 11.8762067,13.9691179 11.7098018,14.0229073 L11.6995839,14.0048188 C11.4490034,13.4669247 11.191611,12.6339028 11.4563018,11.8175413 C11.5575072,11.5033731 11.0767818,11.3539051 10.9750899,11.6685494 C10.6987215,12.5201358 10.8729115,13.4364599 11.248539,14.2309248 C11.1268979,14.3246992 11.0432089,14.4722631 11.0432089,14.6355354 L11.0432089,15.5266308 C11.0432089,15.7684452 11.1847991,15.9440938 11.3692069,16.103558 C11.5078776,16.2039966 11.5618863,16.3853574 11.5886473,16.5686222 C11.4908479,16.5690982 11.3911023,16.5143568 11.3473115,16.3858334 L11.3302817,16.3339481 C11.3117923,16.2811107 11.2767597,16.1868602 11.2246973,16.0697611 C10.9454095,15.4280962 10.3751564,14.5189123 9.50712595,14.7531105 C8.37975687,15.0577585 9.20691589,17.1127045 9.51296472,17.6839195 C9.92605767,18.4541078 10.8106312,19.3947085 11.7584582,19.5608369 C11.8119802,19.5703571 11.9365406,19.6717478 11.9545435,19.7222051 C12.8799885,22.2798204 13.5767483,23.4546193 14.3727672,24.1791103 C14.5109514,24.3043016 14.6569207,24.4199726 14.8087287,24.5280275 C14.8515463,24.5408798 14.8914446,24.5661085 14.9225847,24.6060935 C15.8451103,25.2272899 16.9681003,25.5881074 17.9188466,26.1531342 C18.3251276,26.3949486 18.8301812,26.3811442 19.2870649,26.3844763 C20.3249062,26.3759081 20.2499753,26.3435392 20.9978244,25.9603491 C22.0536685,25.4200749 23.3240875,24.9811914 24.2072013,24.1781583 C25.0022471,23.4536672 25.699007,22.2798204 26.6249385,19.7217291 C26.6755412,19.5827335 27.4516109,19.3309228 27.5941742,19.2485727 C28.7220299,18.5988156 29.6197407,17.0460628 29.6426092,15.7646371 C29.6664508,14.4065734 28.3989513,14.4527466 27.7245734,15.4038196 C27.5917414,15.5913685 27.4701004,15.8022421 27.3718144,16.0193038 C27.3431071,16.0792814 27.304182,16.1716278 27.26623,16.2801586 C27.2560122,16.3120515 27.2433615,16.3453724 27.2336302,16.3791692 C27.1830275,16.5291132 27.0594403,16.5814746 26.9470439,16.5633861 C26.9947272,16.3520365 27.0599268,16.1754359 27.1606456,16.10213 C27.3460265,15.9426658 27.4866436,15.7665411 27.4866436,15.5252028 L27.4866436,14.6350594 C27.4866436,14.4556027 27.3859248,14.2947104 27.2448212,14.2037921 C27.1285324,14.1376263 26.9942407,14.0805048 26.8472983,14.0305235 C26.7086275,13.5349945 26.4609664,13.0884947 26.1841114,12.3049781 C26.0128408,11.8237295 25.8449762,11.2225257 25.7101979,10.3961679 C25.5832047,9.61503141 25.0625811,9.04191234 24.0636649,9.19328432 C25.3321376,7.61577885 26.0196527,5.48562284 25.8688178,2.97560885 C25.8644388,2.9013509 25.8586,2.82947301 25.8513015,2.75807113 C29.4494432,4.77969628 28.7254358,10.8450477 27.7479285,14.6326793 C28.1357201,14.2994706 28.6213111,14.1181098 29.2056746,14.276146 C30.7909005,14.7040812 29.9963413,17.0122659 29.5136697,17.9133576 C29.0052102,18.8620505 28.1308545,19.7207771 27.0540881,20.0140008 C26.3169434,22.0318179 25.6887891,23.6802492 24.1244854,24.8602842 C23.783404,25.6457049 23.5809933,26.3759081 23.4681104,27.1422882 C24.4563222,27.1018272 24.667491,27.3983829 24.9146656,27.7387319 L25.5622824,28.9278112 C25.7481499,29.3462262 27.713869,29.6708667 27.713869,29.6708667 C31.1533908,30.4496232 36.5892852,31.7077242 36.6681086,34.8713034 C36.7639618,38.7641338 37.8655429,41.0727945 37.812994,46 L0.816604089,46 C0.764541728,41.0727945 1.86514978,38.7641338 1.96197604,34.8713034 C2.04031287,31.7077242 7.47620729,30.4496232 10.9162157,29.6708667 C10.9162157,29.6708667 12.8814482,29.3462262 13.0678022,28.9278112 L13.7149325,27.7387319 C13.961134,27.400287 14.1708431,27.1046832 15.1473773,27.1422882 Z M15.2344723,25.3743777 C15.5891775,26.3897124 15.7288214,27.3526857 15.7638541,28.4432304 L15.8056986,29.1729576 C15.8674922,29.6008929 16.0222196,29.9559982 16.5715505,30.2858749 L17.7680117,30.9784731 L17.7110837,34.3633981 C17.5996605,34.4314679 17.519864,34.551423 17.516458,34.7232635 L17.5076999,35.0926492 C17.5038074,35.2673458 17.5811711,35.3911091 17.6921077,35.4744113 C17.6872421,35.8033359 18.1927822,35.8119041 18.1986209,35.4744113 C18.312477,35.4068175 18.3951929,35.2859103 18.4000585,35.1112137 L18.4083301,34.741828 C18.4127092,34.5642753 18.3319395,34.438132 18.2166238,34.3672062 L18.2686862,31.2683647 L18.5606247,31.4368731 C18.7669278,31.5425479 19.0423231,31.5939573 19.3206378,31.5949093 C19.5984659,31.5939573 19.8616971,31.5425479 20.0684869,31.4368731 L20.3292853,31.2864532 L20.3643179,35.579134 C20.2533813,35.6491079 20.175531,35.7714431 20.1765041,35.9447116 L20.1779638,36.3145734 C20.1789369,36.48927 20.2597066,36.6120812 20.373076,36.6910993 C20.3755089,37.0195479 20.881049,37.0166918 20.8781296,36.6787229 C20.9900393,36.6087491 21.070809,36.4859379 21.0703224,36.3112413 L21.0683762,35.9418556 C21.0678896,35.7647789 20.9846871,35.6410157 20.869858,35.5729459 L20.831906,30.9975136 L22.057561,30.2882549 C22.6068919,29.9583783 22.7621059,29.6037489 22.8219533,29.1753377 L22.8438487,28.8126161 C22.857959,27.553087 22.990791,26.4811068 23.3946393,25.3377248 C23.2953802,25.3938942 23.1932017,25.4476837 23.0881039,25.5009971 C22.3684755,25.8637186 21.6138146,26.1659865 20.9204607,26.5796414 C20.4217324,26.8752452 19.860724,26.8771492 19.288038,26.8819094 C18.1752659,26.8723891 18.1660212,26.8214558 17.3447009,26.4001847 C16.6630246,26.0498395 15.9219874,25.7499516 15.2344723,25.3743777 Z M12.9918982,13.8010855 C13.5791811,13.4754929 14.1781416,13.3107926 14.9216116,13.2817558 C16.0416822,13.2384387 17.1062845,13.5759315 18.0215116,14.1766593 C18.18743,14.2856662 18.2643071,14.4379902 18.2754981,14.5855541 C17.8200741,14.467027 17.3880051,14.276622 16.9257692,14.1509547 C16.002757,13.9005721 14.3503853,13.7049309 12.9918982,13.8010855 Z M17.8254263,19.9987684 C17.8254263,19.9987684 17.8531604,19.9683036 17.9042497,19.9306986 C18.4477418,19.5413204 18.7708204,20.1772731 19.3050678,20.1772731 C19.8412614,20.1772731 20.1726116,19.5441765 20.7136709,19.9306986 C20.7647602,19.9683036 20.7924943,19.9987684 20.7924943,19.9987684 C21.0206929,20.2420108 20.6470116,20.5761716 20.4197862,20.3334052 C20.2830617,20.2358226 19.9989082,20.5019136 19.8626703,20.5628432 C19.7152413,20.629009 19.5366723,20.6718501 19.3050678,20.6718501 C18.916303,20.6718501 18.7226505,20.5728395 18.4375239,20.363394 C18.3596737,20.3062725 18.278904,20.2753317 18.1981344,20.3329292 C17.9699358,20.5761716 17.5972277,20.2424868 17.8254263,19.9987684 Z M20.3263659,14.5588974 C20.3433956,14.4199017 20.4212459,14.279002 20.5779195,14.1766593 C21.4926601,13.5759315 22.557749,13.2384387 23.6778196,13.2817558 C24.4212896,13.3107926 25.02025,13.4754929 25.6016941,13.7972774 C24.2451533,13.6963627 22.5436386,13.8953359 21.6006773,14.1509547 C21.0849193,14.2918544 20.7185366,14.4489385 20.3263659,14.5588974 Z M17.2863132,22.4121519 C17.4746135,22.5935126 17.6672929,22.7839176 17.8735961,22.9576622 C18.1957016,23.1747239 18.6214452,23.329904 19.3143125,23.3327601 C20.0032873,23.329904 20.4270846,23.1737719 20.748217,22.9571862 C20.953547,22.7843936 21.1471996,22.5935126 21.336473,22.4121519 C20.5827852,22.4707014 19.7288651,22.4864098 19.3342616,22.4873618 L19.2904708,22.4873618 C18.892948,22.4868858 18.0395145,22.4707014 17.2863132,22.4121519 Z M21.0036631,23.3903576 C20.5336422,23.7744997 20.0135051,24.0701034 19.3386407,24.0820038 L19.2841455,24.0820038 C18.510022,24.0677234 17.9383091,23.6812012 17.4133064,23.214709 C17.2016511,23.0481046 16.9865897,22.8457993 16.7379554,22.6049369 C16.5773893,22.4497568 16.3847099,22.3345618 16.1740276,22.2574478 C16.1219653,22.2436434 16.0752551,22.227935 16.0353568,22.2117506 C15.7346602,22.0908434 15.9117696,21.6367275 16.2236572,21.7504945 L16.2426332,21.7581107 L16.2917761,21.7738191 C17.0868219,22.0080172 18.3426439,21.4910676 19.3099334,21.9356633 C20.2772229,21.4905916 21.5364509,22.0089693 22.3319832,21.772867 L22.3811262,21.7581107 L22.3996156,21.7504945 C22.7124764,21.6367275 22.8890991,22.0908434 22.5879159,22.2117506 C22.5489908,22.227935 22.5032538,22.2431674 22.4521645,22.2574478 C21.8176849,22.4873618 21.5656447,23.0114516 21.0036631,23.3903576 Z M19.0160487,23.8401894 C19.2116475,23.8682741 19.2544651,23.5798106 19.0588663,23.5522018 C18.9284671,23.5336373 18.840399,23.5288772 18.7124327,23.481752 C18.5275383,23.4122541 18.4209808,23.6845333 18.6063617,23.7530791 C18.7649816,23.8135327 18.8559691,23.8178168 19.0160487,23.8401894 Z M10.1493906,15.3576464 C10.5113943,15.6180252 10.7945746,16.1292627 10.9750899,16.7437948 C11.0159613,16.8680341 11.0733759,17.0693874 11.1278711,17.3906958 C11.2835716,18.2960716 10.7031006,18.0038 10.5225853,17.3630871 C10.4666304,17.1598298 10.4729557,17.0598671 10.5113943,16.9246796 C10.3508281,16.3372801 10.1055998,15.9164851 9.87058936,15.7465486 C9.58838216,15.5432913 9.86815654,15.153913 10.1493906,15.3576464 Z M28.4490674,15.3576464 C28.7312746,15.153913 29.0105624,15.5432913 28.7283552,15.7465486 C28.4928582,15.9164851 28.248603,16.3372801 28.0880368,16.9246796 C28.1250157,17.0598671 28.1337738,17.1598298 28.0763593,17.3630871 C27.8963306,18.0038 27.3158596,18.2955956 27.4710735,17.3906958 C27.5265418,17.0689114 27.5844429,16.8675581 27.6253143,16.7437948 C27.8043699,16.1292627 28.0885234,15.6180252 28.4490674,15.3576464 Z" id="Shape"></path>
                    </g>
                </g>
            </g>
        </g>
    </g>
</svg>