<svg height='48px' width='48px' fill="#7aed7b" xmlns="http://www.w3.org/2000/svg" xmlns:xlink="http://www.w3.org/1999/xlink" version="1.1" x="0px" y="0px" viewBox="0 0 96 96" xml:space="preserve"><g><path d="M88.724,38.868c-0.005-0.025,0.006-0.051-0.003-0.076c-0.006-0.017-0.023-0.025-0.031-0.042   c-0.024-0.052-0.059-0.091-0.1-0.132c-0.03-0.03-0.054-0.059-0.09-0.08c-0.014-0.008-0.021-0.024-0.035-0.031   c-0.041-0.02-0.086-0.013-0.129-0.021c-0.03-0.006-0.055-0.027-0.086-0.027h-8.625V16.403c0-0.276-0.224-0.5-0.5-0.5h-62.25   c-0.276,0-0.5,0.224-0.5,0.5V38.46H7.75c-0.031,0-0.055,0.021-0.085,0.027c-0.043,0.007-0.088,0.001-0.129,0.021   c-0.015,0.007-0.021,0.023-0.035,0.031c-0.036,0.021-0.061,0.05-0.09,0.08c-0.041,0.041-0.075,0.08-0.1,0.132   c-0.008,0.016-0.025,0.024-0.032,0.042c-0.009,0.025,0.002,0.051-0.002,0.077C7.27,38.9,7.25,38.927,7.25,38.96v40.637   c0,0.276,0.224,0.5,0.5,0.5h80.5c0.276,0,0.5-0.224,0.5-0.5V38.96C88.75,38.927,88.729,38.9,88.724,38.868z M79.625,39.46h7.216   l-7.216,5.861V39.46z M17.375,38.96V16.903h61.25V38.96v7.174L52.609,67.266L48,71.009l-4.609-3.743L17.375,46.134V38.96z    M16.375,39.46v5.861L9.159,39.46H16.375z M87.75,79.097H8.25V40.011l8.31,6.75l26.2,21.281l4.925,4   c0.092,0.075,0.204,0.112,0.315,0.112s0.224-0.037,0.315-0.112l4.925-4l26.2-21.281l8.31-6.75V79.097z"></path><path d="M57.232,51.494c0.073,0.039,0.152,0.058,0.232,0.058c0.104,0,0.207-0.032,0.294-0.096c0.154-0.112,0.231-0.302,0.199-0.489   l-1.764-10.279l7.468-7.28c0.137-0.133,0.186-0.332,0.127-0.512c-0.059-0.181-0.216-0.313-0.403-0.34l-10.322-1.5l-4.615-9.353   c-0.168-0.342-0.729-0.342-0.896,0l-4.615,9.353l-10.322,1.5c-0.188,0.027-0.345,0.159-0.404,0.34   c-0.059,0.181-0.01,0.379,0.126,0.512l7.469,7.28l-1.763,10.279c-0.032,0.188,0.045,0.377,0.199,0.489   c0.155,0.112,0.359,0.127,0.527,0.038L48,46.641L57.232,51.494z M39.2,50.138l1.636-9.54c0.028-0.162-0.026-0.328-0.144-0.442   l-6.932-6.756l9.579-1.392c0.163-0.023,0.304-0.126,0.376-0.273L48,23.054l4.283,8.68c0.072,0.147,0.214,0.25,0.376,0.273   l9.58,1.392l-6.931,6.756c-0.118,0.115-0.172,0.28-0.145,0.442l1.637,9.54l-8.568-4.504C48.16,45.595,48.08,45.576,48,45.576   s-0.16,0.019-0.233,0.058L39.2,50.138z"></path></g></svg>