<svg height="200px" width="200px" fill="#ffffff" xmlns="http://www.w3.org/2000/svg" xmlns:xlink="http://www.w3.org/1999/xlink" version="1.1" x="0px" y="0px" viewBox="0 0 512 512" enable-background="new 0 0 512 512" xml:space="preserve"><path d="M511.995,202.665c0-26.406-47.015-49.616-117.982-62.889c0.094-44.304-9.874-86.631-20.812-133.521  c-0.984-4.219-3.359-6.25-6.781-6.25c-16.875,0-58.999,49.53-82.905,128.435c-9.046-0.289-18.218-0.438-27.515-0.438  s-18.469,0.148-27.516,0.438C204.579,49.535,162.455,0.005,145.58,0.005c-3.422,0-5.797,2.031-6.781,6.25  c-10.938,46.89-20.906,89.217-20.812,133.521C47.02,153.049,0.005,176.259,0.005,202.665c0,21.867,32.218,41.531,83.545,55.187  l-8.875,222.146c0,17.671,81.187,31.998,181.325,31.998s181.324-14.327,181.324-31.998l-8.874-222.146  C479.777,244.196,511.995,224.532,511.995,202.665z M388.263,195.548c9.109,2.516,15.75,4.992,20.406,7.117  c-5.25,2.398-13.031,5.242-24.015,8.086c0.672-2.539,1.312-5.125,1.953-7.766C387.201,200.494,387.748,198.009,388.263,195.548z   M348.139,42.645c3.328-4.484,6.359-8.132,9.031-11.07c5.969,26.062,11.188,51.062,13.75,75.538  c3.469,32.875,1.859,61.772-5.078,90.944c-1.484,6.234-3.094,12.148-4.781,17.742c-9.5,1.68-19.688,3.109-30.391,4.289  c8.281-62.421,20.484-98.928,20.609-99.319v-0.008c0.359-1.078,0.578-2.227,0.578-3.421c0-5.891-4.781-10.672-10.672-10.672  c-4.688,0-8.656,3.031-10.094,7.234l0,0c-0.031,0.055-0.047,0.141-0.094,0.258v0.008c-1.297,3.859-13.827,42.46-22.093,107.92  c-6.781,0.5-13.688,0.906-20.703,1.211c0.719-12.406,2.031-24.765,3.938-37.031c4.656-29.789,12.688-58.53,23.859-85.42  C327.717,72.675,339.936,53.652,348.139,42.645z M245.203,223.923c-0.797-14.664-2.344-28.828-4.516-42.421  c5.078-0.109,10.188-0.164,15.312-0.164s10.234,0.055,15.312,0.164c-2.172,13.594-3.719,27.757-4.516,42.421  c-3.578,0.047-7.188,0.078-10.797,0.078S248.781,223.97,245.203,223.923z M256,149.338c7.297,0,14.531,0.102,21.718,0.281  c-0.844,3.492-1.655,7.039-2.437,10.633c-6.328-0.156-12.766-0.25-19.281-0.25s-12.953,0.094-19.281,0.25  c-0.781-3.594-1.594-7.141-2.438-10.633C241.469,149.439,248.703,149.338,256,149.338z M141.08,107.112  c2.562-24.476,7.781-49.476,13.75-75.538c2.672,2.938,5.703,6.585,9.031,11.07c8.202,11.008,20.421,30.031,32.14,58.202  c11.172,26.89,19.203,55.632,23.859,85.42c1.905,12.266,3.218,24.625,3.937,37.031c-7.015-0.305-13.921-0.711-20.702-1.211  c-8.266-65.46-20.797-104.061-22.094-107.92v-0.008c-0.047-0.117-0.078-0.203-0.094-0.258l0,0  c-1.438-4.203-5.406-7.234-10.094-7.234c-5.89,0-10.671,4.781-10.671,10.672c0,1.203,0.219,2.351,0.578,3.429l0,0  c0.125,0.398,12.312,36.71,20.608,99.319c-10.703-1.18-20.89-2.609-30.39-4.289c-1.688-5.594-3.297-11.508-4.781-17.742  C139.221,168.885,137.611,139.987,141.08,107.112z M125.393,202.985c0.625,2.641,1.281,5.227,1.953,7.766  c-11-2.844-18.765-5.688-24.015-8.086c4.656-2.125,11.296-4.601,20.405-7.117C124.252,198.009,124.799,200.494,125.393,202.985z   M415.669,472.403c-5.969,2.617-19.688,7.195-48.343,11.312c-31.203,4.477-70.749,6.945-111.326,6.945s-80.124-2.469-111.326-6.945  c-28.656-4.116-42.374-8.694-48.343-11.312l8.375-209.497c42.374,9.07,94.686,14.43,151.294,14.43s108.92-5.359,151.294-14.43  L415.669,472.403z M479.762,214.165c-10.859,7.492-27.703,14.688-48.719,20.82c-22.421,6.539-48.654,11.688-78.014,15.305  C322.342,254.079,289.687,256,256,256c-33.688,0-66.343-1.922-97.029-5.711c-29.359-3.617-55.608-8.766-78.015-15.305  c-21.015-6.132-37.874-13.328-48.718-20.82c-8.906-6.133-10.906-10.461-10.906-11.5c0-1.031,2-5.367,10.906-11.5  c10.844-7.484,27.703-14.688,48.718-20.812c11.625-3.391,24.297-6.406,37.874-9.031c0.344,4.328,0.797,8.688,1.359,13.078  c-28.327,7.531-45.515,17.43-45.515,28.265c0,23.57,81.187,42.671,181.325,42.671s181.324-19.101,181.324-42.671  c0-10.835-17.187-20.734-45.515-28.265c0.562-4.39,1.016-8.75,1.359-13.078c13.578,2.625,26.25,5.641,37.874,9.031  c21.016,6.125,37.859,13.328,48.719,20.812c8.906,6.133,10.906,10.469,10.906,11.5C490.668,203.704,488.668,208.032,479.762,214.165  z"/></svg>