<?xml version="1.0" encoding="UTF-8"?>
<svg width="487px" height="558px" viewBox="0 0 487 558" version="1.1" xmlns="http://www.w3.org/2000/svg" xmlns:xlink="http://www.w3.org/1999/xlink">
    <title>Tablet</title>
    <defs>
        <rect id="path-1" x="2.75122147e-11" y="5.17275112e-12" width="356" height="447" rx="74"></rect>
        <filter x="-14.0%" y="-11.2%" width="136.0%" height="128.6%" filterUnits="objectBoundingBox" id="filter-2">
            <feOffset dx="14" dy="14" in="SourceAlpha" result="shadowOffsetOuter1"></feOffset>
            <feGaussianBlur stdDeviation="19" in="shadowOffsetOuter1" result="shadowBlurOuter1"></feGaussianBlur>
            <feColorMatrix values="0 0 0 0 0   0 0 0 0 0   0 0 0 0 0  0 0 0 0.2 0" type="matrix" in="shadowBlurOuter1"></feColorMatrix>
        </filter>
    </defs>
    <g id="Page-1" stroke="none" stroke-width="1" fill="none" fill-rule="evenodd">
        <g id="Desktop-HD" transform="translate(-900.000000, -249.000000)">
            <g id="Tablet" transform="translate(906.000000, 261.000000)">
                <g transform="translate(221.000000, 256.500000) rotate(-12.000000) translate(-221.000000, -256.500000) translate(43.000000, 33.000000)">
                    <g id="Rectangle">
                        <use fill="black" fill-opacity="1" filter="url(#filter-2)" xlink:href="#path-1"></use>
                        <use fill="#FFFFFF" fill-rule="evenodd" xlink:href="#path-1"></use>
                    </g>
                    <rect id="Rectangle" stroke="#F2F2F2" stroke-width="2" fill="#FFFFFF" x="16.8535534" y="51.1123724" width="323" height="346" rx="13"></rect>
                    <g id="shoes" transform="translate(130.836516, 197.241782)" fill="#F2BF5E" fill-rule="nonzero">
                        <path d="M80.1,17.3 C75.9,16.9 72.3,15.9 69.3,14.8 C69.4,14.6 69.5,14.5 69.6,14.5 C70.2,13.8 70.2,12.7 69.5,12.1 C68.8,11.5 67.7,11.5 67.1,12.2 C67,12.3 66.7,12.7 66.1,13.4 C65,12.8 63.9,12.2 63,11.6 C63.2,11.4 63.3,11.2 63.5,11 L63.7,10.7 C64.3,9.9 64.1,8.9 63.4,8.3 C62.6,7.7 61.6,7.8 61,8.6 L60.8,8.8 C60.6,9.1 60.4,9.3 60.2,9.6 C59.2,8.8 58.3,8 57.6,7.2 C57.7,7 57.8,6.9 58,6.7 L58.3,6.3 C58.9,5.5 58.7,4.5 58,3.9 C57.3,3.3 56.2,3.4 55.6,4.2 L55.3,4.5 C55.3,4.5 55.2,4.6 55.2,4.6 C55,4.4 54.9,4.3 54.8,4.2 C54.6,4 54.4,3.8 54.2,3.6 C53.2,2.5 51.6,0.8 49.1,0.9 C46.7,1 44.3,2.8 41.5,6.5 C35.8,13.9 24.9,6.3 24.8,6.2 C24.6,6.1 24.4,5.9 24.2,5.7 C22.6,4.5 20.5,2.8 18,3.4 C16.5,3.8 15.3,4.9 14.3,6.8 C13.1,9.2 12.6,13.2 12.3,17.2 C13.3,17.8 14.1,18.4 14.8,18.9 L15.4,19.3 C15.4,19.3 15.5,19.4 15.7,19.5 C15.7,18.3 15.8,17.1 15.9,16 C17.7,16.3 21.6,17.4 23.5,22.2 C24.7,22.2 25.8,21.8 26.7,21 C24.4,15.2 19.6,13 16.2,12.5 C16.5,10.8 16.8,9.3 17.4,8.2 C17.8,7.3 18.3,6.7 18.7,6.6 C19.5,6.4 21,7.5 22,8.3 C22.2,8.5 22.5,8.7 22.7,8.8 C26.5,11.6 37.8,16.9 44.2,8.4 C46.9,4.8 48.5,4.2 49.2,4.2 C50,4.1 50.7,4.8 51.6,5.8 C51.8,6.1 52.1,6.3 52.3,6.5 C52.5,6.6 52.7,6.9 52.9,7.1 C51.7,8.7 50.3,10.4 49.7,11.5 C49.2,12.3 49.5,13.4 50.3,13.9 C50.6,14.1 50.9,14.1 51.2,14.1 C51.8,14.1 52.4,13.8 52.7,13.2 C53.1,12.5 54,11.2 55.3,9.6 C56.1,10.3 56.9,11.1 58,12 C57.1,13.2 56.4,14.2 56,14.9 C55.5,15.7 55.8,16.8 56.6,17.3 C56.9,17.5 57.2,17.5 57.5,17.5 C58.1,17.5 58.7,17.2 59,16.7 C59.3,16.2 59.8,15.5 60.9,14.1 C61.8,14.7 62.9,15.3 64,15.9 C63.5,16.5 63,17.1 62.7,17.6 C62.1,18.4 62.3,19.5 63.1,20 C63.4,20.2 63.8,20.3 64.1,20.3 C64.6,20.3 65.2,20.1 65.5,19.6 C65.9,19 66.6,18.2 67.2,17.4 C70.7,18.9 74.9,20 80,20.6 C85.2,21.1 88.3,21.5 90,22.4 C89,23 86.7,23.9 81.7,24.6 C75,25.7 67.1,25.4 59.6,25 C59.8,25.1 60,25.3 60.2,25.5 C61.1,26.3 61.7,27.4 61.9,28.6 C62,28.6 62.1,28.6 62.2,28.7 C65.2,28.8 68.2,29 71.2,29 C74.9,29 78.6,28.8 81.9,28.3 C87.2,27.5 90.2,26.5 91.8,25.5 C91.9,26 92,26.5 92,27.1 C92.1,28 91.8,28.8 91,29.6 C89.4,31.3 86.1,32.5 82.5,33.1 C83.7,33.8 84.7,34.8 85.5,36 C88.8,35.2 91.8,33.8 93.5,32 C94.9,30.5 95.5,28.8 95.4,26.9 C95,18.8 89.7,18.2 80.1,17.3 Z" id="Path"></path>
                        <path d="M68.7,33.3 C64.5,32.9 60.9,31.9 57.9,30.8 C58,30.6 58.1,30.5 58.2,30.5 C58.8,29.8 58.8,28.7 58.1,28.1 C57.4,27.5 56.3,27.5 55.7,28.2 C55.6,28.3 55.3,28.7 54.7,29.4 C53.6,28.8 52.5,28.2 51.6,27.6 C51.8,27.4 51.9,27.2 52.1,27 L52.3,26.7 C52.9,25.9 52.7,24.9 52,24.3 C51.2,23.7 50.2,23.8 49.6,24.6 L49.4,24.8 C49.2,25.1 49,25.3 48.8,25.6 C47.8,24.8 46.9,24 46.2,23.2 C46.3,23 46.4,22.9 46.6,22.7 L46.9,22.3 C47.5,21.5 47.3,20.5 46.6,19.9 C45.9,19.3 44.8,19.4 44.2,20.2 L43.9,20.5 C43.9,20.5 43.8,20.6 43.8,20.6 C43.6,20.4 43.5,20.3 43.4,20.2 C43.2,20 43,19.8 42.8,19.6 C41.8,18.5 40.2,16.8 37.7,16.9 C35.3,17 32.9,18.8 30.1,22.5 C24.4,29.9 13.5,22.3 13.4,22.2 C13.2,22.1 13,21.9 12.8,21.7 C11.2,20.5 9.1,18.8 6.6,19.4 C5.1,19.8 3.9,20.9 2.9,22.8 C0.6,27.6 0.69936,38.4 0.69936,43.6 L0.69936,45 C0.69936,47.2 1.3,48.8 2.4,50 C4.9,52.5 9.4,52.5 18.4,52.5 C21,52.5 23.9,52.5 27.3,52.5 C32.5,52.6 38.8,52.8 44.9,52.9 C52.3,53.1 59.4,53.3 63.4,53.3 C69.8,53.3 78.7,51.9 82.4,47.9 C83.8,46.4 84.4,44.7 84.3,42.8 C83.6,34.8 78.3,34.2 68.7,33.3 Z M5.8,24.2 C6.2,23.3 6.7,22.7 7.1,22.6 C7.9,22.4 9.4,23.5 10.4,24.3 C10.6,24.5 10.9,24.7 11.1,24.8 C14.9,27.6 26.2,32.9 32.6,24.4 C35.3,20.8 36.9,20.2 37.6,20.2 C38.4,20.1 39.1,20.8 40,21.8 C40.2,22.1 40.5,22.3 40.7,22.5 C40.9,22.6 41.1,22.9 41.3,23.1 C40.1,24.7 38.7,26.4 38.1,27.5 C37.6,28.3 37.9,29.4 38.7,29.9 C39,30.1 39.3,30.1 39.6,30.1 C40.2,30.1 40.8,29.8 41.1,29.2 C41.5,28.5 42.4,27.2 43.7,25.6 C44.5,26.3 45.3,27.1 46.4,28 C45.5,29.2 44.8,30.2 44.4,30.9 C43.9,31.7 44.2,32.8 45,33.3 C45.3,33.5 45.6,33.5 45.9,33.5 C46.5,33.5 47.1,33.2 47.4,32.7 C47.7,32.2 48.2,31.5 49.3,30.1 C50.2,30.7 51.3,31.3 52.4,31.9 C51.9,32.5 51.4,33.1 51.1,33.6 C50.5,34.4 50.7,35.5 51.5,36 C51.8,36.2 52.2,36.3 52.5,36.3 C53,36.3 53.6,36.1 53.9,35.6 C54.3,35 55,34.2 55.6,33.4 C59.1,34.9 63.3,36 68.4,36.6 C73.6,37.1 76.7,37.5 78.4,38.4 C77.4,39 75.1,39.9 70.1,40.6 C62.7,41.7 53.3,41.1 45,40.6 C41.4,40.4 37.9,40.2 34.9,40.1 C30.1,40.2 22.6,40 16,39.8 C14.3,31.8 8.5,29 4.7,28.5 C4.9,26.8 5.3,25.3 5.8,24.2 Z M4.3,31.9 C6.3,32.2 10.8,33.5 12.5,39.6 C8.7,39.5 5.6,39.4 4,39.3 C4,37.1 4.1,34.5 4.3,31.9 Z M79.7,45.5 C77,48.4 69.2,49.8 63.2,49.8 C59.2,49.8 52.2,49.6 44.8,49.4 C38.7,49.2 32.4,49 27.2,49 C24.7,49 22.5,49 20.5,49 C19.7,49 19,49 18.3,49 C11,49 6.2,49 4.7,47.6 C4.4,47.1 4,46.5 4,44.9 L4,43.5 C4,43.3 4,43.1 4,42.9 C8.6,43.1 26.3,43.7 34.7,43.8 C37.6,43.9 41,44.1 44.7,44.3 C49.6,44.6 54.8,44.9 59.9,44.9 C63.6,44.9 67.3,44.7 70.6,44.2 C75.9,43.4 78.9,42.4 80.5,41.4 C80.6,41.9 80.7,42.4 80.7,43 C80.7,43.9 80.4,44.7 79.7,45.5 Z" id="Shape"></path>
                    </g>
                    <path d="M121.25787,126.800713 C121.73387,126.800713 122.20287,126.744713 122.66487,126.632713 C123.12687,126.520713 123.53637,126.342213 123.89337,126.097213 C124.25037,125.852213 124.53737,125.537213 124.75437,125.152213 C124.97137,124.767213 125.07987,124.308713 125.07987,123.776713 C125.07987,123.076713 124.85237,122.492213 124.39737,122.023213 C123.94237,121.554213 123.37187,121.242713 122.68587,121.088713 L122.68587,121.088713 L121.27887,120.752713 C120.63487,120.598713 120.15187,120.416713 119.82987,120.206713 C119.50787,119.996713 119.34687,119.660713 119.34687,119.198713 C119.34687,118.932713 119.40637,118.708713 119.52537,118.526713 C119.64437,118.344713 119.80187,118.194213 119.99787,118.075213 C120.19387,117.956213 120.41437,117.868713 120.65937,117.812713 C120.90437,117.756713 121.14587,117.728713 121.38387,117.728713 C121.88787,117.728713 122.31487,117.847713 122.66487,118.085713 C123.01487,118.323713 123.29487,118.645713 123.50487,119.051713 L123.50487,119.051713 L124.74387,118.232713 C124.42187,117.588713 123.96687,117.133713 123.37887,116.867713 C122.79087,116.601713 122.15387,116.468713 121.46787,116.468713 C121.00587,116.468713 120.55787,116.528213 120.12387,116.647213 C119.68987,116.766213 119.30137,116.944713 118.95837,117.182713 C118.61537,117.420713 118.34237,117.728713 118.13937,118.106713 C117.93637,118.484713 117.83487,118.925713 117.83487,119.429713 C117.83487,119.891713 117.93287,120.280213 118.12887,120.595213 C118.32487,120.910213 118.55937,121.165713 118.83237,121.361713 C119.10537,121.557713 119.38537,121.704713 119.67237,121.802713 C119.95937,121.900713 120.18687,121.970713 120.35487,122.012713 L120.35487,122.012713 L121.69887,122.327713 C122.21687,122.453713 122.65787,122.625213 123.02187,122.842213 C123.38587,123.059213 123.56787,123.412713 123.56787,123.902713 C123.56787,124.182713 123.50137,124.427713 123.36837,124.637713 C123.23537,124.847713 123.06037,125.019213 122.84337,125.152213 C122.62637,125.285213 122.37787,125.383213 122.09787,125.446213 C121.81787,125.509213 121.53787,125.540713 121.25787,125.540713 C120.66987,125.540713 120.16237,125.407713 119.73537,125.141713 C119.30837,124.875713 118.95487,124.518713 118.67487,124.070713 L118.67487,124.070713 L117.47787,124.889713 C117.93987,125.589713 118.49637,126.083213 119.14737,126.370213 C119.79837,126.657213 120.50187,126.800713 121.25787,126.800713 Z M128.62887,126.548713 L128.62887,121.508713 C128.62887,120.612713 128.76887,119.912713 129.04887,119.408713 C129.32887,118.904713 129.64737,118.526713 130.00437,118.274713 C130.36137,118.022713 130.70087,117.868713 131.02287,117.812713 C131.34487,117.756713 131.54087,117.728713 131.61087,117.728713 C132.63287,117.728713 133.33287,118.019213 133.71087,118.600213 C134.08887,119.181213 134.27787,120.017713 134.27787,121.109713 L134.27787,121.109713 L134.27787,126.548713 L135.66387,126.548713 L135.66387,120.311713 C135.66387,119.079713 135.36287,118.131213 134.76087,117.466213 C134.15887,116.801213 133.22787,116.468713 131.96787,116.468713 C131.64587,116.468713 131.32037,116.514213 130.99137,116.605213 C130.66237,116.696213 130.35087,116.822213 130.05687,116.983213 C129.76287,117.144213 129.49687,117.336713 129.25887,117.560713 C129.02087,117.784713 128.82487,118.029713 128.67087,118.295713 L128.67087,118.295713 L128.62887,118.295713 L128.62887,110.672713 L127.24287,110.672713 L127.24287,126.548713 L128.62887,126.548713 Z M143.62287,126.800713 C144.39287,126.800713 145.09637,126.671213 145.73337,126.412213 C146.37037,126.153213 146.91987,125.792713 147.38187,125.330713 C147.84387,124.868713 148.20437,124.322713 148.46337,123.692713 C148.72237,123.062713 148.85187,122.376713 148.85187,121.634713 C148.85187,120.892713 148.72237,120.206713 148.46337,119.576713 C148.20437,118.946713 147.84387,118.400713 147.38187,117.938713 C146.91987,117.476713 146.37037,117.116213 145.73337,116.857213 C145.09637,116.598213 144.39287,116.468713 143.62287,116.468713 C142.86687,116.468713 142.17037,116.598213 141.53337,116.857213 C140.89637,117.116213 140.34687,117.476713 139.88487,117.938713 C139.42287,118.400713 139.06237,118.946713 138.80337,119.576713 C138.54437,120.206713 138.41487,120.892713 138.41487,121.634713 C138.41487,122.376713 138.54437,123.062713 138.80337,123.692713 C139.06237,124.322713 139.42287,124.868713 139.88487,125.330713 C140.34687,125.792713 140.89637,126.153213 141.53337,126.412213 C142.17037,126.671213 142.86687,126.800713 143.62287,126.800713 Z M143.62287,125.540713 C143.04887,125.540713 142.53437,125.439213 142.07937,125.236213 C141.62437,125.033213 141.23937,124.756713 140.92437,124.406713 C140.60937,124.056713 140.36437,123.643713 140.18937,123.167713 C140.01437,122.691713 139.92687,122.180713 139.92687,121.634713 C139.92687,121.088713 140.01437,120.577713 140.18937,120.101713 C140.36437,119.625713 140.60937,119.212713 140.92437,118.862713 C141.23937,118.512713 141.62437,118.236213 142.07937,118.033213 C142.53437,117.830213 143.04887,117.728713 143.62287,117.728713 C144.19687,117.728713 144.71137,117.830213 145.16637,118.033213 C145.62137,118.236213 146.00987,118.512713 146.33187,118.862713 C146.65387,119.212713 146.90237,119.625713 147.07737,120.101713 C147.25237,120.577713 147.33987,121.088713 147.33987,121.634713 C147.33987,122.180713 147.25237,122.691713 147.07737,123.167713 C146.90237,123.643713 146.65387,124.056713 146.33187,124.406713 C146.00987,124.756713 145.62137,125.033213 145.16637,125.236213 C144.71137,125.439213 144.19687,125.540713 143.62287,125.540713 Z M155.94987,126.800713 C156.76187,126.800713 157.52137,126.639713 158.22837,126.317713 C158.93537,125.995713 159.58287,125.463713 160.17087,124.721713 L160.17087,124.721713 L159.09987,123.839713 C158.81987,124.287713 158.41037,124.683213 157.87137,125.026213 C157.33237,125.369213 156.69187,125.540713 155.94987,125.540713 C155.45987,125.540713 155.00487,125.449713 154.58487,125.267713 C154.16487,125.085713 153.79387,124.837213 153.47187,124.522213 C153.14987,124.207213 152.89087,123.832713 152.69487,123.398713 C152.49887,122.964713 152.37987,122.502713 152.33787,122.012713 L152.33787,122.012713 L160.52787,122.012713 L160.52787,121.382713 C160.52787,120.710713 160.42287,120.077213 160.21287,119.482213 C160.00287,118.887213 159.69837,118.369213 159.29937,117.928213 C158.90037,117.487213 158.40687,117.133713 157.81887,116.867713 C157.23087,116.601713 156.56587,116.468713 155.82387,116.468713 C155.12387,116.468713 154.47287,116.598213 153.87087,116.857213 C153.26887,117.116213 152.74387,117.476713 152.29587,117.938713 C151.84787,118.400713 151.49787,118.946713 151.24587,119.576713 C150.99387,120.206713 150.86787,120.892713 150.86787,121.634713 C150.86787,122.376713 150.99737,123.062713 151.25637,123.692713 C151.51537,124.322713 151.86887,124.868713 152.31687,125.330713 C152.76487,125.792713 153.30037,126.153213 153.92337,126.412213 C154.54637,126.671213 155.22187,126.800713 155.94987,126.800713 Z M159.01587,120.878713 L152.37987,120.878713 C152.37987,120.472713 152.47437,120.080713 152.66337,119.702713 C152.85237,119.324713 153.10437,118.988713 153.41937,118.694713 C153.73437,118.400713 154.10187,118.166213 154.52187,117.991213 C154.94187,117.816213 155.37587,117.728713 155.82387,117.728713 C156.83187,117.728713 157.61587,118.019213 158.17587,118.600213 C158.73587,119.181213 159.01587,119.940713 159.01587,120.878713 L159.01587,120.878713 Z M170.58687,126.548713 L170.58687,110.672713 L169.20087,110.672713 L169.20087,126.548713 L170.58687,126.548713 Z M178.62987,126.800713 C179.39987,126.800713 180.10337,126.671213 180.74037,126.412213 C181.37737,126.153213 181.92687,125.792713 182.38887,125.330713 C182.85087,124.868713 183.21137,124.322713 183.47037,123.692713 C183.72937,123.062713 183.85887,122.376713 183.85887,121.634713 C183.85887,120.892713 183.72937,120.206713 183.47037,119.576713 C183.21137,118.946713 182.85087,118.400713 182.38887,117.938713 C181.92687,117.476713 181.37737,117.116213 180.74037,116.857213 C180.10337,116.598213 179.39987,116.468713 178.62987,116.468713 C177.87387,116.468713 177.17737,116.598213 176.54037,116.857213 C175.90337,117.116213 175.35387,117.476713 174.89187,117.938713 C174.42987,118.400713 174.06937,118.946713 173.81037,119.576713 C173.55137,120.206713 173.42187,120.892713 173.42187,121.634713 C173.42187,122.376713 173.55137,123.062713 173.81037,123.692713 C174.06937,124.322713 174.42987,124.868713 174.89187,125.330713 C175.35387,125.792713 175.90337,126.153213 176.54037,126.412213 C177.17737,126.671213 177.87387,126.800713 178.62987,126.800713 Z M178.62987,125.540713 C178.05587,125.540713 177.54137,125.439213 177.08637,125.236213 C176.63137,125.033213 176.24637,124.756713 175.93137,124.406713 C175.61637,124.056713 175.37137,123.643713 175.19637,123.167713 C175.02137,122.691713 174.93387,122.180713 174.93387,121.634713 C174.93387,121.088713 175.02137,120.577713 175.19637,120.101713 C175.37137,119.625713 175.61637,119.212713 175.93137,118.862713 C176.24637,118.512713 176.63137,118.236213 177.08637,118.033213 C177.54137,117.830213 178.05587,117.728713 178.62987,117.728713 C179.20387,117.728713 179.71837,117.830213 180.17337,118.033213 C180.62837,118.236213 181.01687,118.512713 181.33887,118.862713 C181.66087,119.212713 181.90937,119.625713 182.08437,120.101713 C182.25937,120.577713 182.34687,121.088713 182.34687,121.634713 C182.34687,122.180713 182.25937,122.691713 182.08437,123.167713 C181.90937,123.643713 181.66087,124.056713 181.33887,124.406713 C181.01687,124.756713 180.62837,125.033213 180.17337,125.236213 C179.71837,125.439213 179.20387,125.540713 178.62987,125.540713 Z M190.70487,126.548713 L194.69487,116.720713 L193.11987,116.720713 L189.99087,124.994713 L189.94887,124.994713 L186.81987,116.720713 L185.16087,116.720713 L189.15087,126.548713 L190.70487,126.548713 Z M201.07887,126.800713 C201.89087,126.800713 202.65037,126.639713 203.35737,126.317713 C204.06437,125.995713 204.71187,125.463713 205.29987,124.721713 L205.29987,124.721713 L204.22887,123.839713 C203.94887,124.287713 203.53937,124.683213 203.00037,125.026213 C202.46137,125.369213 201.82087,125.540713 201.07887,125.540713 C200.58887,125.540713 200.13387,125.449713 199.71387,125.267713 C199.29387,125.085713 198.92287,124.837213 198.60087,124.522213 C198.27887,124.207213 198.01987,123.832713 197.82387,123.398713 C197.62787,122.964713 197.50887,122.502713 197.46687,122.012713 L197.46687,122.012713 L205.65687,122.012713 L205.65687,121.382713 C205.65687,120.710713 205.55187,120.077213 205.34187,119.482213 C205.13187,118.887213 204.82737,118.369213 204.42837,117.928213 C204.02937,117.487213 203.53587,117.133713 202.94787,116.867713 C202.35987,116.601713 201.69487,116.468713 200.95287,116.468713 C200.25287,116.468713 199.60187,116.598213 198.99987,116.857213 C198.39787,117.116213 197.87287,117.476713 197.42487,117.938713 C196.97687,118.400713 196.62687,118.946713 196.37487,119.576713 C196.12287,120.206713 195.99687,120.892713 195.99687,121.634713 C195.99687,122.376713 196.12637,123.062713 196.38537,123.692713 C196.64437,124.322713 196.99787,124.868713 197.44587,125.330713 C197.89387,125.792713 198.42937,126.153213 199.05237,126.412213 C199.67537,126.671213 200.35087,126.800713 201.07887,126.800713 Z M204.14487,120.878713 L197.50887,120.878713 C197.50887,120.472713 197.60337,120.080713 197.79237,119.702713 C197.98137,119.324713 198.23337,118.988713 198.54837,118.694713 C198.86337,118.400713 199.23087,118.166213 199.65087,117.991213 C200.07087,117.816213 200.50487,117.728713 200.95287,117.728713 C201.96087,117.728713 202.74487,118.019213 203.30487,118.600213 C203.86487,119.181213 204.14487,119.940713 204.14487,120.878713 L204.14487,120.878713 Z M215.02287,113.948713 C215.27487,113.948713 215.50587,113.854213 215.71587,113.665213 C215.92587,113.476213 216.03087,113.234713 216.03087,112.940713 C216.03087,112.646713 215.92587,112.405213 215.71587,112.216213 C215.50587,112.027213 215.27487,111.932713 215.02287,111.932713 C214.77087,111.932713 214.53987,112.027213 214.32987,112.216213 C214.11987,112.405213 214.01487,112.646713 214.01487,112.940713 C214.01487,113.234713 214.11987,113.476213 214.32987,113.665213 C214.53987,113.854213 214.77087,113.948713 215.02287,113.948713 Z M215.71587,126.548713 L215.71587,116.720713 L214.32987,116.720713 L214.32987,126.548713 L215.71587,126.548713 Z M222.35187,126.800713 C223.07987,126.800713 223.70287,126.681713 224.22087,126.443713 L224.22087,126.443713 L224.15787,125.162713 C223.94787,125.274713 223.71687,125.365713 223.46487,125.435713 C223.21287,125.505713 222.96787,125.540713 222.72987,125.540713 C222.51987,125.540713 222.32737,125.516213 222.15237,125.467213 C221.97737,125.418213 221.82687,125.330713 221.70087,125.204713 C221.57487,125.078713 221.47687,124.900213 221.40687,124.669213 C221.33687,124.438213 221.30187,124.140713 221.30187,123.776713 L221.30187,123.776713 L221.30187,117.980713 L224.13687,117.980713 L224.13687,116.720713 L221.30187,116.720713 L221.30187,113.948713 L219.91587,113.948713 L219.91587,116.720713 L217.83687,116.720713 L217.83687,117.980713 L219.91587,117.980713 L219.91587,124.175713 C219.91587,124.721713 219.99287,125.162713 220.14687,125.498713 C220.30087,125.834713 220.49687,126.100713 220.73487,126.296713 C220.97287,126.492713 221.23537,126.625713 221.52237,126.695713 C221.80937,126.765713 222.08587,126.800713 222.35187,126.800713 Z M228.18987,122.516713 L228.18987,111.680713 L226.67787,111.680713 L226.67787,122.516713 L228.18987,122.516713 Z M227.43387,126.674713 C227.76987,126.674713 228.04287,126.559213 228.25287,126.328213 C228.46287,126.097213 228.56787,125.834713 228.56787,125.540713 C228.56787,125.246713 228.46287,124.984213 228.25287,124.753213 C228.04287,124.522213 227.76987,124.406713 227.43387,124.406713 C227.09787,124.406713 226.82487,124.522213 226.61487,124.753213 C226.40487,124.984213 226.29987,125.246713 226.29987,125.540713 C226.29987,125.834713 226.40487,126.097213 226.61487,126.328213 C226.82487,126.559213 227.09787,126.674713 227.43387,126.674713 Z" id="shoeloveit!" fill="#000000" fill-rule="nonzero"></path>
                    <rect id="Rectangle" fill="#F2F2F2" transform="translate(179.350998, 359.483178) rotate(-360.000000) translate(-179.350998, -359.483178) " x="16.8509978" y="320.983178" width="325" height="77" rx="13"></rect>
                    <rect id="Rectangle" fill="#D94AA7" x="122.484261" y="341.309129" width="114" height="39" rx="7"></rect>
                    <g id="noun_cart_1445045" transform="translate(295.192583, 63.515514)" fill="#F2F2F2" fill-rule="nonzero">
                        <circle id="Oval" cx="11.6569645" cy="25.553172" r="2.5"></circle>
                        <circle id="Oval" cx="23.0586057" cy="25.502404" r="2.5"></circle>
                        <path d="M29.6844877,5.04251968 L12.1455597,5.04251968 L12.1455597,8.06706047 L27.8304784,8.06706047 L26.0506295,15.7796395 C25.826417,16.8099095 24.9349775,17.5464375 23.8999787,17.5565572 L11.7376777,17.5565572 C10.6887863,17.5641313 9.77718594,16.8237118 9.54994674,15.7796395 L6.43521112,1.75333156 C6.27974971,1.06691626 5.68002396,0.580870299 4.98908387,0.581321689 L0.168659704,0.581321689 L0.168659704,3.6058628 L3.80251792,3.6058628 L6.65769224,16.4601612 C7.18328616,18.8851068 9.3020537,20.603873 11.7376777,20.581098 L23.8999787,20.581098 C26.321734,20.5860001 28.4202067,18.8711804 28.942884,16.4601612 L31.1306149,6.89505092 C31.2323611,6.44580743 31.127545,5.97377877 30.8459363,5.61302972 C30.5643275,5.25228066 30.1366926,5.042224 29.6844877,5.04251968 Z" id="Path"></path>
                    </g>
                    <path d="M168.386433,366.509984 C169.156433,366.509984 169.849433,366.373484 170.465433,366.100484 C171.081433,365.827484 171.606433,365.452984 172.040433,364.976984 C172.474433,364.500984 172.803433,363.940984 173.027433,363.296984 C173.251433,362.652984 173.363433,361.959984 173.363433,361.217984 C173.363433,360.475984 173.244433,359.782984 173.006433,359.138984 C172.768433,358.494984 172.435933,357.934984 172.008933,357.458984 C171.581933,356.982984 171.067433,356.608484 170.465433,356.335484 C169.863433,356.062484 169.205433,355.925984 168.491433,355.925984 C168.015433,355.925984 167.595433,355.974984 167.231433,356.072984 C166.867433,356.170984 166.545433,356.296984 166.265433,356.450984 C165.985433,356.604984 165.747433,356.769484 165.551433,356.944484 C165.355433,357.119484 165.194433,357.290984 165.068433,357.458984 L165.068433,357.458984 L165.005433,357.458984 L165.005433,350.381984 L162.485433,350.381984 L162.485433,366.257984 L164.879433,366.257984 L164.879433,364.745984 L164.921433,364.745984 C165.285433,365.361984 165.775433,365.809984 166.391433,366.089984 C167.007433,366.369984 167.672433,366.509984 168.386433,366.509984 Z M167.882433,364.241984 C167.420433,364.241984 167.007433,364.157984 166.643433,363.989984 C166.279433,363.821984 165.967933,363.597984 165.708933,363.317984 C165.449933,363.037984 165.253933,362.715984 165.120933,362.351984 C164.987933,361.987984 164.921433,361.609984 164.921433,361.217984 C164.921433,360.825984 164.987933,360.447984 165.120933,360.083984 C165.253933,359.719984 165.449933,359.397984 165.708933,359.117984 C165.967933,358.837984 166.279433,358.613984 166.643433,358.445984 C167.007433,358.277984 167.420433,358.193984 167.882433,358.193984 C168.344433,358.193984 168.757433,358.277984 169.121433,358.445984 C169.485433,358.613984 169.796933,358.837984 170.055933,359.117984 C170.314933,359.397984 170.510933,359.719984 170.643933,360.083984 C170.776933,360.447984 170.843433,360.825984 170.843433,361.217984 C170.843433,361.609984 170.776933,361.987984 170.643933,362.351984 C170.510933,362.715984 170.314933,363.037984 170.055933,363.317984 C169.796933,363.597984 169.485433,363.821984 169.121433,363.989984 C168.757433,364.157984 168.344433,364.241984 167.882433,364.241984 Z M179.390433,366.509984 C180.230433,366.509984 180.895433,366.324484 181.385433,365.953484 C181.875433,365.582484 182.239433,365.144984 182.477433,364.640984 L182.477433,364.640984 L182.519433,364.640984 L182.519433,366.257984 L184.913433,366.257984 L184.913433,356.177984 L182.393433,356.177984 L182.393433,361.679984 C182.393433,362.015984 182.351433,362.337984 182.267433,362.645984 C182.183433,362.953984 182.046933,363.226984 181.857933,363.464984 C181.668933,363.702984 181.430933,363.891984 181.143933,364.031984 C180.856933,364.171984 180.503433,364.241984 180.083433,364.241984 C179.635433,364.241984 179.288933,364.140484 179.043933,363.937484 C178.798933,363.734484 178.616933,363.482484 178.497933,363.181484 C178.378933,362.880484 178.305433,362.558484 178.277433,362.215484 C178.249433,361.872484 178.235433,361.560984 178.235433,361.280984 L178.235433,361.280984 L178.235433,356.177984 L175.715433,356.177984 L175.715433,362.540984 C175.715433,363.058984 175.778433,363.555984 175.904433,364.031984 C176.030433,364.507984 176.240433,364.931484 176.534433,365.302484 C176.828433,365.673484 177.209933,365.967484 177.678933,366.184484 C178.147933,366.401484 178.718433,366.509984 179.390433,366.509984 Z M188.567433,371.297984 C189.127433,371.297984 189.606933,371.238484 190.005933,371.119484 C190.404933,371.000484 190.751433,370.818484 191.045433,370.573484 C191.339433,370.328484 191.594933,370.027484 191.811933,369.670484 C192.028933,369.313484 192.228433,368.896984 192.410433,368.420984 L192.410433,368.420984 L197.177433,356.177984 L194.552433,356.177984 L192.032433,363.170984 L191.990433,363.170984 L189.176433,356.177984 L186.404433,356.177984 L190.709433,366.341984 L190.226433,367.538984 C190.114433,367.804984 190.009433,368.032484 189.911433,368.221484 C189.813433,368.410484 189.690933,368.564484 189.543933,368.683484 C189.396933,368.802484 189.218433,368.889984 189.008433,368.945984 C188.798433,369.001984 188.539433,369.029984 188.231433,369.029984 C188.007433,369.029984 187.786933,369.005484 187.569933,368.956484 C187.352933,368.907484 187.146433,368.847984 186.950433,368.777984 L186.950433,368.777984 L186.635433,371.045984 C187.265433,371.213984 187.909433,371.297984 188.567433,371.297984 Z" id="buy" fill="#FFFFFF" fill-rule="nonzero"></path>
                </g>
            </g>
        </g>
    </g>
</svg>