<?xml version="1.0" encoding="UTF-8"?>
<svg width="2440px" height="688px" viewBox="0 0 2440 688" version="1.1" xmlns="http://www.w3.org/2000/svg" xmlns:xlink="http://www.w3.org/1999/xlink">
    <title>Artboard</title>
    <defs>
        <path d="M182.09713,141 L2257.90287,141 C2280.19084,141 2288.27299,143.32064 2296.42114,147.678318 C2304.56929,152.035995 2310.96401,158.430709 2315.32168,166.578857 C2319.67936,174.727006 2322,182.809162 2322,205.09713 L2322,495.90287 C2322,518.190838 2319.67936,526.272994 2315.32168,534.421143 C2310.96401,542.569291 2304.56929,548.964005 2296.42114,553.321682 C2288.27299,557.67936 2280.19084,560 2257.90287,560 L182.09713,560 C159.809162,560 151.727006,557.67936 143.578857,553.321682 C135.430709,548.964005 129.035995,542.569291 124.678318,534.421143 C120.32064,526.272994 118,518.190838 118,495.90287 L118,205.09713 C118,182.809162 120.32064,174.727006 124.678318,166.578857 C129.035995,158.430709 135.430709,152.035995 143.578857,147.678318 C151.727006,143.32064 159.809162,141 182.09713,141 Z" id="path-1"></path>
        <filter x="-5.7%" y="-20.3%" width="111.4%" height="160.1%" filterUnits="objectBoundingBox" id="filter-2">
            <feGaussianBlur stdDeviation="0" in="SourceGraphic"></feGaussianBlur>
        </filter>
        <filter x="-9.5%" y="-40.2%" width="119.0%" height="200.0%" filterUnits="objectBoundingBox" id="filter-3">
            <feMorphology radius="11" operator="dilate" in="SourceAlpha" result="shadowSpreadOuter1"></feMorphology>
            <feOffset dx="1" dy="41" in="shadowSpreadOuter1" result="shadowOffsetOuter1"></feOffset>
            <feGaussianBlur stdDeviation="52" in="shadowOffsetOuter1" result="shadowBlurOuter1"></feGaussianBlur>
            <feColorMatrix values="0 0 0 0 0   0 0 0 0 0   0 0 0 0 0  0 0 0 0.5 0" type="matrix" in="shadowBlurOuter1"></feColorMatrix>
        </filter>
    </defs>
    <g id="Artboard" stroke="none" stroke-width="1" fill="none" fill-rule="evenodd">
        <g id="Rectangle" filter="url(#filter-2)">
            <use fill="black" fill-opacity="1" filter="url(#filter-3)" xlink:href="#path-1"></use>
            <use fill="#323232" fill-rule="evenodd" xlink:href="#path-1"></use>
        </g>
        <g id="➜-shopping_app-git:(" transform="translate(420.601562, 317.464844)" fill-rule="nonzero">
            <path d="M24.3105469,48.0585938 C24.7675781,48.0585938 25.1953125,47.9765625 25.59375,47.8125 C26.015625,47.625 26.3671875,47.390625 26.6484375,47.109375 L26.6484375,47.109375 L37.1953125,36.5625 C37.4765625,36.2578125 37.7226562,35.8945312 37.9335938,35.4726562 C38.0976562,35.0976562 38.1796875,34.6875 38.1796875,34.2421875 C38.1796875,33.796875 38.0976562,33.3867188 37.9335938,33.0117188 C37.7695312,32.6132812 37.5234375,32.25 37.1953125,31.921875 L37.1953125,31.921875 L26.6484375,21.375 C26.3671875,21.09375 26.015625,20.8476562 25.59375,20.6367188 C25.1953125,20.4726562 24.7675781,20.390625 24.3105469,20.390625 C23.8535156,20.390625 23.4316406,20.4785156 23.0449219,20.6542969 C22.6582031,20.8300781 22.3125,21.0703125 22.0078125,21.375 C21.6796875,21.703125 21.4335938,22.0664062 21.2695312,22.4648438 C21.1054688,22.8398438 21.0234375,23.25 21.0234375,23.6953125 C21.0234375,24.140625 21.1054688,24.5625 21.2695312,24.9609375 C21.4570312,25.3828125 21.703125,25.7460938 22.0078125,26.0507812 L22.0078125,26.0507812 L26.8945312,30.9375 L3.26953125,30.9375 C2.82421875,30.9375 2.40820312,31.0253906 2.02148438,31.2011719 C1.63476562,31.3769531 1.28320312,31.6171875 0.966796875,31.921875 C0.650390625,32.2265625 0.3984375,32.5898438 0.2109375,33.0117188 C0.0703125,33.3867188 0,33.796875 0,34.2421875 C0,34.6875 0.0703125,35.0976562 0.2109375,35.4726562 C0.3984375,35.8945312 0.650390625,36.2578125 0.966796875,36.5625 C1.28320312,36.8671875 1.63476562,37.1015625 2.02148438,37.265625 C2.40820312,37.4296875 2.82421875,37.5117188 3.26953125,37.5117188 L3.26953125,37.5117188 L26.8945312,37.5117188 L22.0078125,42.4335938 C21.703125,42.7382812 21.4570312,43.1015625 21.2695312,43.5234375 C21.1054688,43.8984375 21.0234375,44.3203125 21.0234375,44.7890625 C21.0234375,45.234375 21.1054688,45.6445312 21.2695312,46.0195312 C21.4335938,46.3945312 21.6796875,46.7578125 22.0078125,47.109375 C22.3125,47.4140625 22.6582031,47.6484375 23.0449219,47.8125 C23.4316406,47.9765625 23.8535156,48.0585938 24.3105469,48.0585938 Z" id="➜" fill="#F54234"></path>
            <path d="M105.609375,59.5546875 C110.953125,59.5546875 114.955078,58.5410156 117.615234,56.5136719 C120.275391,54.4863281 121.605469,51.4453125 121.605469,47.390625 C121.605469,44.015625 120.732422,41.3378906 118.986328,39.3574219 C117.240234,37.3769531 114.492188,35.9414062 110.742188,35.0507812 L110.742188,35.0507812 L107.789062,34.3476562 L107.402344,34.2421875 C102.386719,33.0703125 99.8789062,31.546875 99.8789062,29.671875 C99.8789062,28.359375 100.464844,27.3691406 101.636719,26.7011719 C102.808594,26.0332031 104.542969,25.6992188 106.839844,25.6992188 C108.902344,25.6992188 110.958984,26.0097656 113.009766,26.6308594 C115.060547,27.2519531 117.035156,28.171875 118.933594,29.390625 L118.933594,29.390625 L118.933594,20.390625 C116.847656,19.6640625 114.697266,19.1191406 112.482422,18.7558594 C110.267578,18.3925781 108.046875,18.2109375 105.820312,18.2109375 C100.851562,18.2109375 96.9960938,19.265625 94.2539062,21.375 C91.5117188,23.484375 90.140625,26.4375 90.140625,30.234375 C90.140625,33.421875 91.0429688,35.9648438 92.8476562,37.8632812 C94.6523438,39.7617188 97.5234375,41.15625 101.460938,42.046875 L101.460938,42.046875 L104.308594,42.6796875 C107.613281,43.4765625 109.705078,44.2265625 110.583984,44.9296875 C111.462891,45.6328125 111.902344,46.640625 111.902344,47.953125 C111.902344,49.2890625 111.28125,50.3085938 110.039062,51.0117188 C108.796875,51.7148438 106.96875,52.0664062 104.554688,52.0664062 C102.351562,52.0664062 100.072266,51.7265625 97.7167969,51.046875 C95.3613281,50.3671875 93.046875,49.3828125 90.7734375,48.09375 L90.7734375,48.09375 L90.7734375,57.09375 C93.328125,57.9140625 95.8476562,58.5292969 98.3320312,58.9394531 C100.816406,59.3496094 103.242188,59.5546875 105.609375,59.5546875 Z M143.71875,58.5351562 L143.71875,36 C143.71875,33.0703125 144.246094,30.7792969 145.300781,29.1269531 C146.355469,27.4746094 147.820312,26.6484375 149.695312,26.6484375 C151.523438,26.6484375 152.841797,27.2578125 153.650391,28.4765625 C154.458984,29.6953125 154.863281,31.7226562 154.863281,34.5585938 L154.863281,34.5585938 L154.863281,58.5351562 L165.09375,58.5351562 L165.09375,32.9765625 C165.09375,28.078125 164.144531,24.3925781 162.246094,21.9199219 C160.347656,19.4472656 157.535156,18.2109375 153.808594,18.2109375 C151.324219,18.2109375 149.203125,18.8085938 147.445312,20.0039062 C145.6875,21.1992188 144.445312,22.8867188 143.71875,25.0664062 L143.71875,25.0664062 L143.71875,3.83203125 L133.488281,3.83203125 L133.488281,58.5351562 L143.71875,58.5351562 Z M192.445312,59.5546875 C198.023438,59.5546875 202.458984,57.6972656 205.751953,53.9824219 C209.044922,50.2675781 210.691406,45.234375 210.691406,38.8828125 C210.691406,32.53125 209.044922,27.4980469 205.751953,23.7832031 C202.458984,20.0683594 198.023438,18.2109375 192.445312,18.2109375 C186.890625,18.2109375 182.466797,20.0683594 179.173828,23.7832031 C175.880859,27.4980469 174.234375,32.53125 174.234375,38.8828125 C174.234375,45.234375 175.880859,50.2675781 179.173828,53.9824219 C182.466797,57.6972656 186.890625,59.5546875 192.445312,59.5546875 Z M192.445312,51.1875 C189.984375,51.1875 188.050781,50.1035156 186.644531,47.9355469 C185.238281,45.7675781 184.535156,42.75 184.535156,38.8828125 C184.535156,35.015625 185.238281,31.9980469 186.644531,29.8300781 C188.050781,27.6621094 189.984375,26.578125 192.445312,26.578125 C194.929688,26.578125 196.875,27.6621094 198.28125,29.8300781 C199.6875,31.9980469 200.390625,35.015625 200.390625,38.8828125 C200.390625,42.75 199.6875,45.7675781 198.28125,47.9355469 C196.875,50.1035156 194.929688,51.1875 192.445312,51.1875 Z M229.675781,73.5117188 L229.675781,52.9804688 C230.941406,55.1835938 232.412109,56.8300781 234.087891,57.9199219 C235.763672,59.0097656 237.65625,59.5546875 239.765625,59.5546875 C244.429688,59.5546875 248.021484,57.7734375 250.541016,54.2109375 C253.060547,50.6484375 254.320312,45.5390625 254.320312,38.8828125 C254.320312,32.3203125 253.078125,27.234375 250.59375,23.625 C248.109375,20.015625 244.617188,18.2109375 240.117188,18.2109375 C237.75,18.2109375 235.6875,18.7851562 233.929688,19.9335938 C232.171875,21.0820312 230.753906,22.7929688 229.675781,25.0664062 L229.675781,25.0664062 L229.675781,19.1601562 L219.410156,19.1601562 L219.410156,73.5117188 L229.675781,73.5117188 Z M236.882812,50.9765625 C234.65625,50.9765625 232.898438,49.8984375 231.609375,47.7421875 C230.320312,45.5859375 229.675781,42.609375 229.675781,38.8125 C229.675781,35.015625 230.320312,32.0390625 231.609375,29.8828125 C232.898438,27.7265625 234.65625,26.6484375 236.882812,26.6484375 C239.109375,26.6484375 240.855469,27.7265625 242.121094,29.8828125 C243.386719,32.0390625 244.019531,35.015625 244.019531,38.8125 C244.019531,42.609375 243.386719,45.5859375 242.121094,47.7421875 C240.855469,49.8984375 239.109375,50.9765625 236.882812,50.9765625 Z M273.023438,73.5117188 L273.023438,52.9804688 C274.289062,55.1835938 275.759766,56.8300781 277.435547,57.9199219 C279.111328,59.0097656 281.003906,59.5546875 283.113281,59.5546875 C287.777344,59.5546875 291.369141,57.7734375 293.888672,54.2109375 C296.408203,50.6484375 297.667969,45.5390625 297.667969,38.8828125 C297.667969,32.3203125 296.425781,27.234375 293.941406,23.625 C291.457031,20.015625 287.964844,18.2109375 283.464844,18.2109375 C281.097656,18.2109375 279.035156,18.7851562 277.277344,19.9335938 C275.519531,21.0820312 274.101562,22.7929688 273.023438,25.0664062 L273.023438,25.0664062 L273.023438,19.1601562 L262.757812,19.1601562 L262.757812,73.5117188 L273.023438,73.5117188 Z M280.230469,50.9765625 C278.003906,50.9765625 276.246094,49.8984375 274.957031,47.7421875 C273.667969,45.5859375 273.023438,42.609375 273.023438,38.8125 C273.023438,35.015625 273.667969,32.0390625 274.957031,29.8828125 C276.246094,27.7265625 278.003906,26.6484375 280.230469,26.6484375 C282.457031,26.6484375 284.203125,27.7265625 285.46875,29.8828125 C286.734375,32.0390625 287.367188,35.015625 287.367188,38.8125 C287.367188,42.609375 286.734375,45.5859375 285.46875,47.7421875 C284.203125,49.8984375 282.457031,50.9765625 280.230469,50.9765625 Z M328.992188,12.0234375 L328.992188,0 L318.691406,0 L318.691406,12.0234375 L328.992188,12.0234375 Z M341.789062,58.5351562 L341.789062,50.625 L328.992188,50.625 L328.992188,19.1601562 L308.601562,19.1601562 L308.601562,27.0703125 L318.691406,27.0703125 L318.691406,50.625 L305.859375,50.625 L305.859375,58.5351562 L341.789062,58.5351562 Z M360.457031,58.5351562 L360.457031,36 C360.457031,33.046875 360.990234,30.7382812 362.056641,29.0742188 C363.123047,27.4101562 364.582031,26.578125 366.433594,26.578125 C368.261719,26.578125 369.580078,27.1933594 370.388672,28.4238281 C371.197266,29.6542969 371.601562,31.6992188 371.601562,34.5585938 L371.601562,34.5585938 L371.601562,58.5351562 L381.832031,58.5351562 L381.832031,32.9765625 C381.832031,28.078125 380.882812,24.3925781 378.984375,21.9199219 C377.085938,19.4472656 374.273438,18.2109375 370.546875,18.2109375 C368.0625,18.2109375 365.941406,18.8085938 364.183594,20.0039062 C362.425781,21.1992188 361.183594,22.8867188 360.457031,25.0664062 L360.457031,25.0664062 L360.457031,19.1601562 L350.226562,19.1601562 L350.226562,58.5351562 L360.457031,58.5351562 Z M407.917969,73.4414062 C414.316406,73.4414062 418.939453,72.0410156 421.787109,69.2402344 C424.634766,66.4394531 426.058594,61.8867188 426.058594,55.5820312 L426.058594,55.5820312 L426.058594,19.1601562 L415.757812,19.1601562 L415.757812,24.1875 C414.75,22.265625 413.367188,20.7773438 411.609375,19.7226562 C409.851562,18.6679688 407.847656,18.140625 405.597656,18.140625 C401.144531,18.140625 397.59375,19.96875 394.945312,23.625 C392.296875,27.28125 390.972656,32.2265625 390.972656,38.4609375 C390.972656,44.484375 392.296875,49.2539062 394.945312,52.7695312 C397.59375,56.2851562 401.167969,58.0429688 405.667969,58.0429688 C408.058594,58.0429688 410.085938,57.5859375 411.75,56.671875 C413.414062,55.7578125 414.75,54.3632812 415.757812,52.4882812 L415.757812,52.4882812 L415.757812,56.7421875 C415.757812,59.6484375 415.066406,61.7871094 413.683594,63.1582031 C412.300781,64.5292969 410.15625,65.2148438 407.25,65.2148438 C405.117188,65.2148438 403.042969,64.9570312 401.027344,64.4414062 C399.011719,63.9257812 397.03125,63.1289062 395.085938,62.0507812 L395.085938,62.0507812 L395.085938,71.5078125 C397.265625,72.1640625 399.410156,72.6503906 401.519531,72.9667969 C403.628906,73.2832031 405.761719,73.4414062 407.917969,73.4414062 Z M408.480469,49.8867188 C406.324219,49.8867188 404.583984,48.8320312 403.259766,46.7226562 C401.935547,44.6132812 401.273438,41.7773438 401.273438,38.2148438 C401.273438,34.6757812 401.935547,31.8515625 403.259766,29.7421875 C404.583984,27.6328125 406.324219,26.578125 408.480469,26.578125 C410.660156,26.578125 412.417969,27.6386719 413.753906,29.7597656 C415.089844,31.8808594 415.757812,34.6992188 415.757812,38.2148438 C415.757812,41.7539062 415.089844,44.5839844 413.753906,46.7050781 C412.417969,48.8261719 410.660156,49.8867188 408.480469,49.8867188 Z M474.222656,72.2460938 L474.222656,65.2148438 L430.875,65.2148438 L430.875,72.2460938 L474.222656,72.2460938 Z M491.730469,59.5546875 C494.074219,59.5546875 496.21875,59.0859375 498.164062,58.1484375 C500.109375,57.2109375 501.703125,55.875 502.945312,54.140625 L502.945312,54.140625 L502.945312,58.5351562 L513.175781,58.5351562 L513.175781,36.0703125 C513.175781,29.3671875 511.880859,24.7148438 509.291016,22.1132812 C506.701172,19.5117188 502.207031,18.2109375 495.808594,18.2109375 C493.183594,18.2109375 490.699219,18.4335938 488.355469,18.8789062 C486.011719,19.3242188 483.703125,20.015625 481.429688,20.953125 L481.429688,20.953125 L481.429688,29.7421875 C483.9375,28.3828125 486.345703,27.3925781 488.654297,26.7714844 C490.962891,26.1503906 493.347656,25.8398438 495.808594,25.8398438 C498.152344,25.8398438 499.927734,26.2675781 501.134766,27.1230469 C502.341797,27.9785156 502.945312,29.2382812 502.945312,30.9023438 L502.945312,30.9023438 L502.945312,32.625 L495.808594,32.625 C489.574219,32.625 484.96875,33.7207031 481.992188,35.9121094 C479.015625,38.1035156 477.527344,41.4960938 477.527344,46.0898438 C477.527344,50.3320312 478.775391,53.6367188 481.271484,56.0039062 C483.767578,58.3710938 487.253906,59.5546875 491.730469,59.5546875 Z M494.367188,52.4179688 C492.5625,52.4179688 491.132812,51.890625 490.078125,50.8359375 C489.023438,49.78125 488.496094,48.3632812 488.496094,46.5820312 C488.496094,44.1914062 489.257812,42.5039062 490.78125,41.5195312 C492.304688,40.5351562 494.988281,40.0429688 498.832031,40.0429688 L498.832031,40.0429688 L502.945312,40.0429688 L502.945312,40.7460938 C502.945312,44.4257812 502.195312,47.2910156 500.695312,49.3417969 C499.195312,51.3925781 497.085938,52.4179688 494.367188,52.4179688 Z M533.109375,73.5117188 L533.109375,52.9804688 C534.375,55.1835938 535.845703,56.8300781 537.521484,57.9199219 C539.197266,59.0097656 541.089844,59.5546875 543.199219,59.5546875 C547.863281,59.5546875 551.455078,57.7734375 553.974609,54.2109375 C556.494141,50.6484375 557.753906,45.5390625 557.753906,38.8828125 C557.753906,32.3203125 556.511719,27.234375 554.027344,23.625 C551.542969,20.015625 548.050781,18.2109375 543.550781,18.2109375 C541.183594,18.2109375 539.121094,18.7851562 537.363281,19.9335938 C535.605469,21.0820312 534.1875,22.7929688 533.109375,25.0664062 L533.109375,25.0664062 L533.109375,19.1601562 L522.84375,19.1601562 L522.84375,73.5117188 L533.109375,73.5117188 Z M540.316406,50.9765625 C538.089844,50.9765625 536.332031,49.8984375 535.042969,47.7421875 C533.753906,45.5859375 533.109375,42.609375 533.109375,38.8125 C533.109375,35.015625 533.753906,32.0390625 535.042969,29.8828125 C536.332031,27.7265625 538.089844,26.6484375 540.316406,26.6484375 C542.542969,26.6484375 544.289062,27.7265625 545.554688,29.8828125 C546.820312,32.0390625 547.453125,35.015625 547.453125,38.8125 C547.453125,42.609375 546.820312,45.5859375 545.554688,47.7421875 C544.289062,49.8984375 542.542969,50.9765625 540.316406,50.9765625 Z M576.457031,73.5117188 L576.457031,52.9804688 C577.722656,55.1835938 579.193359,56.8300781 580.869141,57.9199219 C582.544922,59.0097656 584.4375,59.5546875 586.546875,59.5546875 C591.210938,59.5546875 594.802734,57.7734375 597.322266,54.2109375 C599.841797,50.6484375 601.101562,45.5390625 601.101562,38.8828125 C601.101562,32.3203125 599.859375,27.234375 597.375,23.625 C594.890625,20.015625 591.398438,18.2109375 586.898438,18.2109375 C584.53125,18.2109375 582.46875,18.7851562 580.710938,19.9335938 C578.953125,21.0820312 577.535156,22.7929688 576.457031,25.0664062 L576.457031,25.0664062 L576.457031,19.1601562 L566.191406,19.1601562 L566.191406,73.5117188 L576.457031,73.5117188 Z M583.664062,50.9765625 C581.4375,50.9765625 579.679688,49.8984375 578.390625,47.7421875 C577.101562,45.5859375 576.457031,42.609375 576.457031,38.8125 C576.457031,35.015625 577.101562,32.0390625 578.390625,29.8828125 C579.679688,27.7265625 581.4375,26.6484375 583.664062,26.6484375 C585.890625,26.6484375 587.636719,27.7265625 588.902344,29.8828125 C590.167969,32.0390625 590.800781,35.015625 590.800781,38.8125 C590.800781,42.609375 590.167969,45.5859375 588.902344,47.7421875 C587.636719,49.8984375 585.890625,50.9765625 583.664062,50.9765625 Z" id="shopping_app" fill="#37E6E8"></path>
            <path d="M668.003906,73.4414062 C674.402344,73.4414062 679.025391,72.0410156 681.873047,69.2402344 C684.720703,66.4394531 686.144531,61.8867188 686.144531,55.5820312 L686.144531,55.5820312 L686.144531,19.1601562 L675.84375,19.1601562 L675.84375,24.1875 C674.835938,22.265625 673.453125,20.7773438 671.695312,19.7226562 C669.9375,18.6679688 667.933594,18.140625 665.683594,18.140625 C661.230469,18.140625 657.679688,19.96875 655.03125,23.625 C652.382812,27.28125 651.058594,32.2265625 651.058594,38.4609375 C651.058594,44.484375 652.382812,49.2539062 655.03125,52.7695312 C657.679688,56.2851562 661.253906,58.0429688 665.753906,58.0429688 C668.144531,58.0429688 670.171875,57.5859375 671.835938,56.671875 C673.5,55.7578125 674.835938,54.3632812 675.84375,52.4882812 L675.84375,52.4882812 L675.84375,56.7421875 C675.84375,59.6484375 675.152344,61.7871094 673.769531,63.1582031 C672.386719,64.5292969 670.242188,65.2148438 667.335938,65.2148438 C665.203125,65.2148438 663.128906,64.9570312 661.113281,64.4414062 C659.097656,63.9257812 657.117188,63.1289062 655.171875,62.0507812 L655.171875,62.0507812 L655.171875,71.5078125 C657.351562,72.1640625 659.496094,72.6503906 661.605469,72.9667969 C663.714844,73.2832031 665.847656,73.4414062 668.003906,73.4414062 Z M668.566406,49.8867188 C666.410156,49.8867188 664.669922,48.8320312 663.345703,46.7226562 C662.021484,44.6132812 661.359375,41.7773438 661.359375,38.2148438 C661.359375,34.6757812 662.021484,31.8515625 663.345703,29.7421875 C664.669922,27.6328125 666.410156,26.578125 668.566406,26.578125 C670.746094,26.578125 672.503906,27.6386719 673.839844,29.7597656 C675.175781,31.8808594 675.84375,34.6992188 675.84375,38.2148438 C675.84375,41.7539062 675.175781,44.5839844 673.839844,46.7050781 C672.503906,48.8261719 670.746094,49.8867188 668.566406,49.8867188 Z M719.121094,12.0234375 L719.121094,0 L708.820312,0 L708.820312,12.0234375 L719.121094,12.0234375 Z M731.917969,58.5351562 L731.917969,50.625 L719.121094,50.625 L719.121094,19.1601562 L698.730469,19.1601562 L698.730469,27.0703125 L708.820312,27.0703125 L708.820312,50.625 L695.988281,50.625 L695.988281,58.5351562 L731.917969,58.5351562 Z M772.03125,58.5351562 L772.03125,50.625 L764.121094,50.625 C762.128906,50.625 760.705078,50.2441406 759.849609,49.4824219 C758.994141,48.7207031 758.566406,47.4609375 758.566406,45.703125 L758.566406,45.703125 L758.566406,27.0703125 L772.03125,27.0703125 L772.03125,19.1601562 L758.566406,19.1601562 L758.566406,7.98046875 L748.265625,7.98046875 L748.265625,19.1601562 L738.210938,19.1601562 L738.210938,27.0703125 L748.265625,27.0703125 L748.265625,45.2109375 C748.265625,50.3203125 749.308594,53.8183594 751.394531,55.7050781 C753.480469,57.5917969 757.476562,58.5351562 763.382812,58.5351562 L763.382812,58.5351562 L772.03125,58.5351562 Z M805.148438,33.9960938 L805.148438,21.1640625 L793.441406,21.1640625 L793.441406,33.9960938 L805.148438,33.9960938 Z M805.148438,58.5351562 L805.148438,45.6328125 L793.441406,45.6328125 L793.441406,58.5351562 L805.148438,58.5351562 Z" id="git:" fill="#85B0D8"></path>
            <path d="M853.488281,68.0273438 C850.394531,62.4023438 848.097656,56.9472656 846.597656,51.6621094 C845.097656,46.3769531 844.347656,41.1328125 844.347656,35.9296875 C844.347656,30.6796875 845.097656,25.4296875 846.597656,20.1796875 C848.097656,14.9296875 850.394531,9.50390625 853.488281,3.90234375 L853.488281,3.90234375 L845.472656,3.90234375 C841.769531,9.24609375 839.009766,14.5605469 837.193359,19.8457031 C835.376953,25.1308594 834.46875,30.4921875 834.46875,35.9296875 C834.46875,41.390625 835.371094,46.7519531 837.175781,52.0136719 C838.980469,57.2753906 841.746094,62.6132812 845.472656,68.0273438 L845.472656,68.0273438 L853.488281,68.0273438 Z" id="(" fill="#569BBE"></path>
            <path d="M875.671875,58.5351562 L875.671875,33.2578125 C875.671875,30.328125 875.894531,28.3710938 876.339844,27.3867188 C876.785156,26.4023438 877.59375,25.9101562 878.765625,25.9101562 C879.9375,25.9101562 880.757812,26.4140625 881.226562,27.421875 C881.695312,28.4296875 881.929688,30.375 881.929688,33.2578125 L881.929688,33.2578125 L881.929688,58.5351562 L890.261719,58.5351562 L890.261719,33.2578125 C890.261719,30.375 890.496094,28.4296875 890.964844,27.421875 C891.433594,26.4140625 892.253906,25.9101562 893.425781,25.9101562 C894.597656,25.9101562 895.40625,26.4023438 895.851562,27.3867188 C896.296875,28.3710938 896.519531,30.328125 896.519531,33.2578125 L896.519531,33.2578125 L896.519531,58.5351562 L904.957031,58.5351562 L904.957031,36.3515625 C904.957031,28.9453125 904.306641,24.0703125 903.005859,21.7265625 C901.705078,19.3828125 899.355469,18.2109375 895.957031,18.2109375 C894.222656,18.2109375 892.757812,18.609375 891.5625,19.40625 C890.367188,20.203125 889.382812,21.4335938 888.609375,23.0976562 C888.328125,21.7382812 887.53125,20.5839844 886.21875,19.6347656 C884.90625,18.6855469 883.453125,18.2109375 881.859375,18.2109375 C880.265625,18.2109375 878.824219,18.6621094 877.535156,19.5644531 C876.246094,20.4667969 875.308594,21.6914062 874.722656,23.2382812 L874.722656,23.2382812 L874.722656,19.1601562 L867.234375,19.1601562 L867.234375,58.5351562 L875.671875,58.5351562 Z M925.207031,59.5546875 C927.550781,59.5546875 929.695312,59.0859375 931.640625,58.1484375 C933.585938,57.2109375 935.179688,55.875 936.421875,54.140625 L936.421875,54.140625 L936.421875,58.5351562 L946.652344,58.5351562 L946.652344,36.0703125 C946.652344,29.3671875 945.357422,24.7148438 942.767578,22.1132812 C940.177734,19.5117188 935.683594,18.2109375 929.285156,18.2109375 C926.660156,18.2109375 924.175781,18.4335938 921.832031,18.8789062 C919.488281,19.3242188 917.179688,20.015625 914.90625,20.953125 L914.90625,20.953125 L914.90625,29.7421875 C917.414062,28.3828125 919.822266,27.3925781 922.130859,26.7714844 C924.439453,26.1503906 926.824219,25.8398438 929.285156,25.8398438 C931.628906,25.8398438 933.404297,26.2675781 934.611328,27.1230469 C935.818359,27.9785156 936.421875,29.2382812 936.421875,30.9023438 L936.421875,30.9023438 L936.421875,32.625 L929.285156,32.625 C923.050781,32.625 918.445312,33.7207031 915.46875,35.9121094 C912.492188,38.1035156 911.003906,41.4960938 911.003906,46.0898438 C911.003906,50.3320312 912.251953,53.6367188 914.748047,56.0039062 C917.244141,58.3710938 920.730469,59.5546875 925.207031,59.5546875 Z M927.84375,52.4179688 C926.039062,52.4179688 924.609375,51.890625 923.554688,50.8359375 C922.5,49.78125 921.972656,48.3632812 921.972656,46.5820312 C921.972656,44.1914062 922.734375,42.5039062 924.257812,41.5195312 C925.78125,40.5351562 928.464844,40.0429688 932.308594,40.0429688 L932.308594,40.0429688 L936.421875,40.0429688 L936.421875,40.7460938 C936.421875,44.4257812 935.671875,47.2910156 934.171875,49.3417969 C932.671875,51.3925781 930.5625,52.4179688 927.84375,52.4179688 Z M972.5625,59.5546875 C977.90625,59.5546875 981.908203,58.5410156 984.568359,56.5136719 C987.228516,54.4863281 988.558594,51.4453125 988.558594,47.390625 C988.558594,44.015625 987.685547,41.3378906 985.939453,39.3574219 C984.193359,37.3769531 981.445312,35.9414062 977.695312,35.0507812 L977.695312,35.0507812 L974.742188,34.3476562 L974.355469,34.2421875 C969.339844,33.0703125 966.832031,31.546875 966.832031,29.671875 C966.832031,28.359375 967.417969,27.3691406 968.589844,26.7011719 C969.761719,26.0332031 971.496094,25.6992188 973.792969,25.6992188 C975.855469,25.6992188 977.912109,26.0097656 979.962891,26.6308594 C982.013672,27.2519531 983.988281,28.171875 985.886719,29.390625 L985.886719,29.390625 L985.886719,20.390625 C983.800781,19.6640625 981.650391,19.1191406 979.435547,18.7558594 C977.220703,18.3925781 975,18.2109375 972.773438,18.2109375 C967.804688,18.2109375 963.949219,19.265625 961.207031,21.375 C958.464844,23.484375 957.09375,26.4375 957.09375,30.234375 C957.09375,33.421875 957.996094,35.9648438 959.800781,37.8632812 C961.605469,39.7617188 964.476562,41.15625 968.414062,42.046875 L968.414062,42.046875 L971.261719,42.6796875 C974.566406,43.4765625 976.658203,44.2265625 977.537109,44.9296875 C978.416016,45.6328125 978.855469,46.640625 978.855469,47.953125 C978.855469,49.2890625 978.234375,50.3085938 976.992188,51.0117188 C975.75,51.7148438 973.921875,52.0664062 971.507812,52.0664062 C969.304688,52.0664062 967.025391,51.7265625 964.669922,51.046875 C962.314453,50.3671875 960,49.3828125 957.726562,48.09375 L957.726562,48.09375 L957.726562,57.09375 C960.28125,57.9140625 962.800781,58.5292969 965.285156,58.9394531 C967.769531,59.3496094 970.195312,59.5546875 972.5625,59.5546875 Z M1032.11719,58.5351562 L1032.11719,50.625 L1024.20703,50.625 C1022.21484,50.625 1020.79102,50.2441406 1019.93555,49.4824219 C1019.08008,48.7207031 1018.65234,47.4609375 1018.65234,45.703125 L1018.65234,45.703125 L1018.65234,27.0703125 L1032.11719,27.0703125 L1032.11719,19.1601562 L1018.65234,19.1601562 L1018.65234,7.98046875 L1008.35156,7.98046875 L1008.35156,19.1601562 L998.296875,19.1601562 L998.296875,27.0703125 L1008.35156,27.0703125 L1008.35156,45.2109375 C1008.35156,50.3203125 1009.39453,53.8183594 1011.48047,55.7050781 C1013.56641,57.5917969 1017.5625,58.5351562 1023.46875,58.5351562 L1023.46875,58.5351562 L1032.11719,58.5351562 Z M1061.29688,59.5546875 C1064.0625,59.5546875 1066.6875,59.3085938 1069.17188,58.8164062 C1071.65625,58.3242188 1074.09375,57.5859375 1076.48438,56.6015625 L1076.48438,56.6015625 L1076.48438,47.1445312 C1073.97656,48.6210938 1071.57422,49.6992188 1069.27734,50.3789062 C1066.98047,51.0585938 1064.64844,51.3984375 1062.28125,51.3984375 C1058.69531,51.3984375 1056,50.6367188 1054.19531,49.1132812 C1052.39062,47.5898438 1051.47656,45.28125 1051.45312,42.1875 L1051.45312,42.1875 L1078.13672,42.1875 L1078.13672,38.0039062 C1078.13672,31.7226562 1076.52539,26.8535156 1073.30273,23.3964844 C1070.08008,19.9394531 1065.55078,18.2109375 1059.71484,18.2109375 C1053.92578,18.2109375 1049.35547,20.0742188 1046.00391,23.8007812 C1042.65234,27.5273438 1040.97656,32.6015625 1040.97656,39.0234375 C1040.97656,45.65625 1042.7168,50.7363281 1046.19727,54.2636719 C1049.67773,57.7910156 1054.71094,59.5546875 1061.29688,59.5546875 Z M1051.55859,34.4882812 C1051.81641,31.8398438 1052.64844,29.7949219 1054.05469,28.3535156 C1055.46094,26.9121094 1057.34766,26.1914062 1059.71484,26.1914062 C1062.33984,26.1914062 1064.32617,26.8886719 1065.67383,28.2832031 C1067.02148,29.6777344 1067.71875,31.734375 1067.76562,34.453125 L1067.76562,34.453125 L1051.55859,34.4882812 Z M1101.62109,58.5351562 L1101.62109,40.3945312 C1101.62109,37.8164062 1101.73242,35.8945312 1101.95508,34.6289062 C1102.17773,33.3632812 1102.57031,32.2851562 1103.13281,31.3945312 C1104.02344,29.9414062 1105.2832,28.8339844 1106.91211,28.0722656 C1108.54102,27.3105469 1110.44531,26.9296875 1112.625,26.9296875 C1114.42969,26.9296875 1116.08789,27.1875 1117.59961,27.703125 C1119.11133,28.21875 1120.42969,28.9921875 1121.55469,30.0234375 L1121.55469,30.0234375 L1121.55469,20.2148438 C1120.33594,19.5585938 1119.05273,19.0605469 1117.70508,18.7207031 C1116.35742,18.3808594 1114.98047,18.2109375 1113.57422,18.2109375 C1110.78516,18.2109375 1108.34766,18.8261719 1106.26172,20.0566406 C1104.17578,21.2871094 1102.62891,23.0273438 1101.62109,25.2773438 L1101.62109,25.2773438 L1101.62109,19.1601562 L1091.32031,19.1601562 L1091.32031,58.5351562 L1101.62109,58.5351562 Z" id="master" fill="#F54234"></path>
            <path d="M1143.31641,68.0273438 C1147.04297,62.6132812 1149.80859,57.2753906 1151.61328,52.0136719 C1153.41797,46.7519531 1154.32031,41.390625 1154.32031,35.9296875 C1154.32031,30.4921875 1153.41211,25.1308594 1151.5957,19.8457031 C1149.7793,14.5605469 1147.01953,9.24609375 1143.31641,3.90234375 L1143.31641,3.90234375 L1135.30078,3.90234375 C1138.39453,9.50390625 1140.69141,14.9296875 1142.19141,20.1796875 C1143.69141,25.4296875 1144.44141,30.6796875 1144.44141,35.9296875 C1144.44141,41.1328125 1143.69141,46.3769531 1142.19141,51.6621094 C1140.69141,56.9472656 1138.39453,62.4023438 1135.30078,68.0273438 L1135.30078,68.0273438 L1143.31641,68.0273438 Z" id=")" fill="#569BBE"></path>
            <path d="M1230.78516,59.5546875 C1233.12891,59.5546875 1235.19727,59.0449219 1236.99023,58.0253906 C1238.7832,57.0058594 1240.21875,55.5234375 1241.29688,53.578125 L1241.29688,53.578125 L1241.29688,58.5351562 L1247.76562,58.5351562 L1247.76562,3.83203125 L1241.29688,3.83203125 L1241.29688,24.1875 C1240.26562,22.2421875 1238.84766,20.7597656 1237.04297,19.7402344 C1235.23828,18.7207031 1233.15234,18.2109375 1230.78516,18.2109375 C1226.05078,18.2109375 1222.3125,20.0332031 1219.57031,23.6777344 C1216.82812,27.3222656 1215.45703,32.34375 1215.45703,38.7421875 C1215.45703,45.234375 1216.82227,50.3261719 1219.55273,54.0175781 C1222.2832,57.7089844 1226.02734,59.5546875 1230.78516,59.5546875 Z M1231.73438,54.0703125 C1228.61719,54.0703125 1226.26172,52.7929688 1224.66797,50.2382812 C1223.07422,47.6835938 1222.27734,43.8984375 1222.27734,38.8828125 C1222.27734,33.8671875 1223.07422,30.0820312 1224.66797,27.5273438 C1226.26172,24.9726562 1228.61719,23.6953125 1231.73438,23.6953125 C1234.85156,23.6953125 1237.22461,24.9785156 1238.85352,27.5449219 C1240.48242,30.1113281 1241.29688,33.890625 1241.29688,38.8828125 C1241.29688,43.8515625 1240.48242,47.625 1238.85352,50.203125 C1237.22461,52.78125 1234.85156,54.0703125 1231.73438,54.0703125 Z M1266.15234,73.5117188 C1268.30859,73.5117188 1270.19531,73.0546875 1271.8125,72.140625 C1273.42969,71.2265625 1274.77734,69.8554688 1275.85547,68.0273438 C1276.65234,66.6679688 1278.21094,62.8945312 1280.53125,56.7070312 C1282.19531,52.2304688 1283.56641,48.6210938 1284.64453,45.8789062 L1284.64453,45.8789062 L1295.01562,19.1601562 L1288.16016,19.1601562 L1276.66406,49.9570312 L1264.99219,19.1601562 L1258.13672,19.1601562 L1273.35938,57.9023438 C1271.69531,62.4960938 1270.32422,65.34375 1269.24609,66.4453125 C1268.16797,67.546875 1266.67969,68.0976562 1264.78125,68.0976562 L1264.78125,68.0976562 L1260.94922,68.0976562 L1260.94922,73.5117188 L1266.15234,73.5117188 Z M1311.15234,58.5351562 L1311.15234,36.28125 C1311.15234,32.2734375 1311.9668,29.1972656 1313.5957,27.0527344 C1315.22461,24.9082031 1317.55078,23.8359375 1320.57422,23.8359375 C1323.22266,23.8359375 1325.16797,24.6679688 1326.41016,26.3320312 C1327.65234,27.9960938 1328.27344,30.5976562 1328.27344,34.1367188 L1328.27344,34.1367188 L1328.27344,58.5351562 L1334.77734,58.5351562 L1334.77734,34.1367188 C1334.77734,28.7929688 1333.78711,24.8027344 1331.80664,22.1660156 C1329.82617,19.5292969 1326.83203,18.2109375 1322.82422,18.2109375 C1320.12891,18.2109375 1317.79688,18.7910156 1315.82812,19.9511719 C1313.85938,21.1113281 1312.30078,22.8164062 1311.15234,25.0664062 L1311.15234,25.0664062 L1311.15234,19.1601562 L1304.68359,19.1601562 L1304.68359,58.5351562 L1311.15234,58.5351562 Z M1362.83203,59.5546875 C1368.31641,59.5546875 1372.5,57.7910156 1375.38281,54.2636719 C1378.26562,50.7363281 1379.70703,45.609375 1379.70703,38.8828125 C1379.70703,32.1796875 1378.25977,27.0585938 1375.36523,23.5195312 C1372.4707,19.9804688 1368.29297,18.2109375 1362.83203,18.2109375 C1357.37109,18.2109375 1353.19922,19.9804688 1350.31641,23.5195312 C1347.43359,27.0585938 1345.99219,32.1796875 1345.99219,38.8828125 C1345.99219,45.609375 1347.43359,50.7363281 1350.31641,54.2636719 C1353.19922,57.7910156 1357.37109,59.5546875 1362.83203,59.5546875 Z M1362.83203,54.0703125 C1359.55078,54.0703125 1357.06641,52.7871094 1355.37891,50.2207031 C1353.69141,47.6542969 1352.84766,43.875 1352.84766,38.8828125 C1352.84766,33.8671875 1353.69141,30.0820312 1355.37891,27.5273438 C1357.06641,24.9726562 1359.55078,23.6953125 1362.83203,23.6953125 C1366.13672,23.6953125 1368.63281,24.9726562 1370.32031,27.5273438 C1372.00781,30.0820312 1372.85156,33.8671875 1372.85156,38.8828125 C1372.85156,43.875 1372.00781,47.6542969 1370.32031,50.2207031 C1368.63281,52.7871094 1366.13672,54.0703125 1362.83203,54.0703125 Z M1441.05469,73.5117188 L1441.05469,53.578125 C1442.08594,55.5234375 1443.49805,57.0058594 1445.29102,58.0253906 C1447.08398,59.0449219 1449.17578,59.5546875 1451.56641,59.5546875 C1456.30078,59.5546875 1460.02734,57.7324219 1462.74609,54.0878906 C1465.46484,50.4433594 1466.82422,45.421875 1466.82422,39.0234375 C1466.82422,32.5078125 1465.4707,27.4101562 1462.76367,23.7304688 C1460.05664,20.0507812 1456.32422,18.2109375 1451.56641,18.2109375 C1449.22266,18.2109375 1447.1543,18.7207031 1445.36133,19.7402344 C1443.56836,20.7597656 1442.13281,22.2421875 1441.05469,24.1875 L1441.05469,24.1875 L1441.05469,19.1601562 L1434.55078,19.1601562 L1434.55078,73.5117188 L1441.05469,73.5117188 Z M1450.61719,54.0703125 C1447.47656,54.0703125 1445.09766,52.78125 1443.48047,50.203125 C1441.86328,47.625 1441.05469,43.8515625 1441.05469,38.8828125 C1441.05469,33.890625 1441.86328,30.1113281 1443.48047,27.5449219 C1445.09766,24.9785156 1447.47656,23.6953125 1450.61719,23.6953125 C1453.73438,23.6953125 1456.08398,24.9726562 1457.66602,27.5273438 C1459.24805,30.0820312 1460.03906,33.8671875 1460.03906,38.8828125 C1460.03906,43.8984375 1459.24805,47.6835938 1457.66602,50.2382812 C1456.08398,52.7929688 1453.73438,54.0703125 1450.61719,54.0703125 Z M1490.02734,59.5546875 C1492.67578,59.5546875 1494.99023,58.96875 1496.9707,57.796875 C1498.95117,56.625 1500.51562,54.9023438 1501.66406,52.6289062 L1501.66406,52.6289062 L1501.66406,58.5351562 L1508.16797,58.5351562 L1508.16797,19.2304688 L1501.66406,19.2304688 L1501.66406,41.484375 C1501.66406,45.4921875 1500.85547,48.5683594 1499.23828,50.7128906 C1497.62109,52.8574219 1495.28906,53.9296875 1492.24219,53.9296875 C1489.61719,53.9296875 1487.67773,53.0976562 1486.42383,51.4335938 C1485.16992,49.7695312 1484.54297,47.1679688 1484.54297,43.6289062 L1484.54297,43.6289062 L1484.54297,19.2304688 L1478.07422,19.2304688 L1478.07422,43.6289062 C1478.07422,48.9726562 1479.05859,52.9628906 1481.02734,55.5996094 C1482.99609,58.2363281 1485.99609,59.5546875 1490.02734,59.5546875 Z M1535.09766,59.5546875 C1540.01953,59.5546875 1543.86328,58.4589844 1546.62891,56.2675781 C1549.39453,54.0761719 1550.77734,51.0351562 1550.77734,47.1445312 C1550.77734,44.2148438 1549.95117,41.8359375 1548.29883,40.0078125 C1546.64648,38.1796875 1544.21484,36.9609375 1541.00391,36.3515625 L1541.00391,36.3515625 L1538.40234,35.859375 C1534.11328,35.0390625 1531.42969,34.1953125 1530.35156,33.328125 C1529.27344,32.4609375 1528.73438,31.1484375 1528.73438,29.390625 C1528.73438,27.4453125 1529.45508,25.9980469 1530.89648,25.0488281 C1532.33789,24.0996094 1534.52344,23.625 1537.45312,23.625 C1539.39844,23.625 1541.30859,23.8945312 1543.18359,24.4335938 C1545.05859,24.9726562 1546.92188,25.78125 1548.77344,26.859375 L1548.77344,26.859375 L1548.77344,20.53125 C1546.89844,19.7578125 1544.98828,19.1777344 1543.04297,18.7910156 C1541.09766,18.4042969 1539.07031,18.2109375 1536.96094,18.2109375 C1532.22656,18.2109375 1528.58203,19.2363281 1526.02734,21.2871094 C1523.47266,23.3378906 1522.19531,26.25 1522.19531,30.0234375 C1522.19531,33 1523.05078,35.3496094 1524.76172,37.0722656 C1526.47266,38.7949219 1529.19141,40.0195312 1532.91797,40.7460938 L1532.91797,40.7460938 L1535.34375,41.2382812 L1535.625,41.3085938 C1541.36719,42.4570312 1544.23828,44.53125 1544.23828,47.53125 C1544.23828,49.6171875 1543.45312,51.2402344 1541.88281,52.4003906 C1540.3125,53.5605469 1538.09766,54.140625 1535.23828,54.140625 C1533.26953,54.140625 1531.18359,53.8300781 1528.98047,53.2089844 C1526.77734,52.5878906 1524.46875,51.65625 1522.05469,50.4140625 L1522.05469,50.4140625 L1522.05469,57.09375 C1524.53906,57.9140625 1526.84766,58.5292969 1528.98047,58.9394531 C1531.11328,59.3496094 1533.15234,59.5546875 1535.09766,59.5546875 Z M1571.23828,58.5351562 L1571.23828,36.28125 C1571.23828,32.2734375 1572.05273,29.1972656 1573.68164,27.0527344 C1575.31055,24.9082031 1577.63672,23.8359375 1580.66016,23.8359375 C1583.30859,23.8359375 1585.25391,24.6679688 1586.49609,26.3320312 C1587.73828,27.9960938 1588.35938,30.5976562 1588.35938,34.1367188 L1588.35938,34.1367188 L1588.35938,58.5351562 L1594.86328,58.5351562 L1594.86328,34.1367188 C1594.86328,28.7929688 1593.87305,24.8027344 1591.89258,22.1660156 C1589.91211,19.5292969 1586.91797,18.2109375 1582.91016,18.2109375 C1580.21484,18.2109375 1577.88281,18.7910156 1575.91406,19.9511719 C1573.94531,21.1113281 1572.38672,22.8164062 1571.23828,25.0664062 L1571.23828,25.0664062 L1571.23828,3.83203125 L1564.76953,3.83203125 L1564.76953,58.5351562 L1571.23828,58.5351562 Z" id="dynopush" fill="#FFFFFF"></path>
        </g>
        <rect id="Rectangle" stroke="#B3B3B3" fill="#F6F6F6" x="118.5" y="127.5" width="2203" height="83" rx="6"></rect>
        <circle id="Oval" stroke="#979797" fill="#FF6259" cx="170.5" cy="168.5" r="21"></circle>
        <circle id="Oval" stroke="#979797" fill="#FFC430" cx="233.5" cy="168.5" r="21"></circle>
        <circle id="Oval" stroke="#979797" fill="#2CD043" cx="296.5" cy="168.5" r="21"></circle>
    </g>
</svg>