<?xml version="1.0" encoding="UTF-8"?>
<svg width="2880px" height="1208px" viewBox="0 0 2880 1208" version="1.1" xmlns="http://www.w3.org/2000/svg" xmlns:xlink="http://www.w3.org/1999/xlink">
    <title>headerBG</title>
    <defs>
        <linearGradient x1="38.5474193%" y1="26.6717657%" x2="38.5474193%" y2="100%" id="linearGradient-1">
            <stop stop-color="#002D41" offset="0%"></stop>
            <stop stop-color="#000000" offset="100%"></stop>
        </linearGradient>
        <linearGradient x1="100%" y1="50%" x2="0%" y2="50%" id="linearGradient-2">
            <stop stop-color="#569BBE" offset="0%"></stop>
            <stop stop-color="#569BBE" stop-opacity="0" offset="100%"></stop>
        </linearGradient>
        <linearGradient x1="98.2962913%" y1="38.8977877%" x2="1.70370869%" y2="61.1022123%" id="linearGradient-3">
            <stop stop-color="#569BBE" offset="0%"></stop>
            <stop stop-color="#569BBE" stop-opacity="0" offset="99.9181799%"></stop>
        </linearGradient>
        <linearGradient x1="100%" y1="50%" x2="0%" y2="50%" id="linearGradient-4">
            <stop stop-color="#569BBE" stop-opacity="0" offset="0.0818201014%"></stop>
            <stop stop-color="#569BBE" offset="100%"></stop>
        </linearGradient>
        <linearGradient x1="1.70370869%" y1="61.1022123%" x2="98.2962913%" y2="38.8977877%" id="linearGradient-5">
            <stop stop-color="#569BBE" stop-opacity="0" offset="0.0818201014%"></stop>
            <stop stop-color="#569BBE" offset="100%"></stop>
        </linearGradient>
    </defs>
    <g id="headerBG" stroke="none" stroke-width="1" fill="none" fill-rule="evenodd">
        <path d="M0,1208 C640,1208 1120,1208 1440,1208 C1760,1208 2240,1208 2880,1208 L2880,0 L0,0 L0,1208 Z" stroke="#979797" fill="url(#linearGradient-1)"></path>
        <path d="M-285.01898,1380.36678 C267.80978,1185.73725 775.933949,1148.29381 1239.35353,1268.03643 C1934.4829,1447.65037 2376.00376,1578.51984 2861.83073,1386.29947 C3185.71539,1258.15255 3201.27156,1132.36067 2908.49927,1008.92382 C2571.29054,1264.12795 2040.84987,1299.8464 1317.17725,1116.07919 C593.504643,932.311979 17.1122251,945.004667 -412,1154.15725 L-285.01898,1380.36678 Z" id="swish" fill-opacity="0.3" fill="url(#linearGradient-2)"></path>
        <path d="M165.177862,1582.15827 C648.675262,1251.14583 1129.68587,1083.51669 1608.2097,1079.27085 C2325.99544,1072.90208 2786.25138,1085.06879 3205.66784,773.718275 C3485.27882,566.151266 3467.74247,440.631264 3153.05879,397.158271 C2893.46724,730.889891 2390.45881,902.626807 1644.03347,912.36902 C897.608139,922.111233 344.263648,1083.49775 -16,1396.52858 L165.177862,1582.15827 Z" id="swish" fill-opacity="0.3" fill="url(#linearGradient-3)"></path>
        <path d="M-190.01898,811.366776 C362.80978,616.737254 870.933949,579.293806 1334.35353,699.03643 C2029.4829,878.650366 2471.00376,1009.51984 2956.83073,817.299469 C3280.71539,689.152555 3296.27156,563.360671 3003.49927,439.92382 C2666.29054,695.127947 2135.84987,730.846405 1412.17725,547.079192 C688.504643,363.311979 112.112225,376.004667 -317,585.157255 L-190.01898,811.366776 Z" id="swish" fill-opacity="0.3" fill="url(#linearGradient-4)" transform="translate(1447.500000, 665.158271) rotate(-180.000000) translate(-1447.500000, -665.158271) "></path>
        <path d="M2994.82214,-349.841729 C2511.32474,-18.8292895 2030.31413,148.799852 1551.7903,153.045694 C834.004562,159.414457 373.748617,147.247752 -45.667844,458.598266 C-325.278818,666.165275 -307.742466,791.685277 6.94121251,835.158271 C266.532756,501.426651 769.541194,329.689734 1515.96653,319.947521 C2262.39186,310.205309 2815.73635,148.818787 3176,-164.212042 L2994.82214,-349.841729 Z" id="swish" fill-opacity="0.3" fill="url(#linearGradient-5)"></path>
    </g>
</svg>