<?xml version="1.0" encoding="UTF-8"?>
<svg width="40px" height="40px" viewBox="0 0 40 40" version="1.1" xmlns="http://www.w3.org/2000/svg" xmlns:xlink="http://www.w3.org/1999/xlink">
    <title>star</title>
    <defs>
        <filter id="filter-1">
            <feColorMatrix in="SourceGraphic" type="matrix" values="0 0 0 0 0.949020 0 0 0 0 0.749020 0 0 0 0 0.368627 0 0 0 1.000000 0"></feColorMatrix>
        </filter>
    </defs>
    <g id="Projects" stroke="none" stroke-width="1" fill="none" fill-rule="evenodd">
        <g id="Desktop-HD" transform="translate(-258.000000, -92.000000)">
            <g id="getting-started">
                <g id="Intro" transform="translate(250.000000, 83.000000)">
                    <g filter="url(#filter-1)" id="star">
                        <g transform="translate(8.000000, 9.000000)">
                            <path d="M5.53766275,6 C5.65595609,6 5.77424942,5.9548499 5.86454963,5.8645496 C6.04515012,5.68394911 6.04515012,5.3913763 5.86454963,5.21077581 L3.78922417,3.13545037 C3.60862368,2.95484988 3.31605087,2.95484988 3.13545037,3.13545037 C2.95484988,3.31605087 2.95484988,3.60862367 3.13545037,3.78922417 L5.21077583,5.8645496 C5.30107612,5.9548499 5.41936941,6 5.53766275,6 Z" id="Path" fill="#000000" fill-rule="nonzero"></path>
                            <path d="M12.4929123,4 C12.5441465,4 12.5966182,3.99223043 12.6480998,3.97596291 C12.914666,3.89171164 13.0611908,3.6115215 12.975553,3.35026972 L11.9897284,0.345388484 C11.9038431,0.0838938954 11.6187138,-0.060328767 11.3519002,0.0241653196 C11.085334,0.108416598 10.9388092,0.388606736 11.024447,0.649858516 L12.0102716,3.65473975 C12.0795739,3.86573208 12.2785703,4 12.4929123,4 Z" id="Path" fill="#000000" fill-rule="nonzero"></path>
                            <path d="M0.0239833059,11.3521214 C-0.0600301774,11.6183952 0.0837154464,11.9039714 0.345225641,11.9898423 L3.35028621,12.9755009 C3.40079143,12.9920811 3.45226789,13 3.50253028,13 C3.71280684,13 3.90802892,12.8631511 3.97601669,12.6481028 C4.06003018,12.381829 3.91628455,12.0962528 3.65477436,12.010382 L0.649713794,11.0247234 C0.387232357,10.9383577 0.108239612,11.0856001 0.0239833059,11.3521214 Z" id="Path" fill="#000000" fill-rule="nonzero"></path>
                            <path d="M36.2107759,37.8645496 C36.3010761,37.9548499 36.4193695,38 36.5376627,38 C36.655956,38 36.7742494,37.9548499 36.8645496,37.8645496 C37.0451501,37.6839491 37.0451501,37.3913763 36.8645496,37.2107758 L34.7892242,35.1354504 C34.6086237,34.9548499 34.3160509,34.9548499 34.1354504,35.1354504 C33.9548499,35.3160509 33.9548499,35.6086237 34.1354504,35.7892242 L36.2107759,37.8645496 Z" id="Path" fill="#000000" fill-rule="nonzero"></path>
                            <path d="M27.3519002,36.0240741 C27.085334,36.1083273 26.9388092,36.3885239 27.024447,36.6497817 L28.0102716,39.6547318 C28.0795739,39.8657291 28.2785704,40 28.4929123,40 C28.5441465,40 28.5966182,39.9922303 28.6480998,39.9759624 C28.914666,39.8917092 29.0611908,39.6115126 28.975553,39.3502548 L27.9897284,36.3453047 C27.9038432,36.0838041 27.6182188,35.9398209 27.3519002,36.0240741 Z" id="Path" fill="#000000" fill-rule="nonzero"></path>
                            <path d="M39.5025303,29 C39.7128068,29 39.9080289,28.8631639 39.9760167,28.6481358 C40.0600302,28.3818869 39.9162846,28.0963374 39.6547744,28.0104746 L36.6497138,27.0249083 C36.3874752,26.9380558 36.1082396,27.0857794 36.0239833,27.3522757 C35.9399698,27.6185246 36.0837154,27.9040741 36.3452256,27.9899369 L39.3502862,28.9755031 C39.4007914,28.9920818 39.4522679,29 39.5025303,29 Z" id="Path" fill="#000000" fill-rule="nonzero"></path>
                            <path d="M3.46230251,38 C3.58058694,38 3.69887138,37.9548499 3.78916479,37.8645496 L5.86455982,35.7892242 C6.04514673,35.6086237 6.04514673,35.3160509 5.86455982,35.1354504 C5.68397291,34.9548499 5.39142212,34.9548499 5.21083521,35.1354504 L3.13544018,37.2107758 C2.95485327,37.3913763 2.95485327,37.6839491 3.13544018,37.8645496 C3.22573363,37.9548499 3.34401807,38 3.46230251,38 Z" id="Path" fill="#000000" fill-rule="nonzero"></path>
                            <path d="M0.497469761,29 C0.547732156,29 0.599208617,28.9920803 0.649713835,28.9754986 L3.65477436,27.9897478 C3.91628455,27.9038689 4.06003018,27.618266 3.97601669,27.3519673 C3.89176039,27.0854211 3.61203918,26.9386598 3.35028616,27.0245386 L0.345225636,28.0102894 C0.0837154453,28.0961683 -0.0600301767,28.3817712 0.0239833056,28.6480699 C0.0919711247,28.8631383 0.287193207,29 0.497469761,29 Z" id="Path" fill="#000000" fill-rule="nonzero"></path>
                            <path d="M12.0102716,36.3453047 L11.024447,39.3502548 C10.9388092,39.6115126 11.085334,39.8917092 11.3519002,39.9759624 C11.4033818,39.9922303 11.4558535,40 11.5070877,40 C11.7214297,40 11.9204262,39.8657291 11.9897284,39.6547318 L12.975553,36.6497817 C13.0611908,36.3885239 12.914666,36.1083273 12.6480998,36.0240741 C12.3815337,35.9398209 12.0959094,36.0838041 12.0102716,36.3453047 Z" id="Path" fill="#000000" fill-rule="nonzero"></path>
                            <path d="M36.2107759,3.13544018 L34.1354504,5.2108352 C33.9548499,5.3914221 33.9548499,5.68397289 34.1354504,5.8645598 C34.2257506,5.95485325 34.344044,6 34.4623373,6 C34.5806306,6 34.6989239,5.9548533 34.7892241,5.8645598 L36.8645496,3.78916478 C37.0451501,3.60857787 37.0451501,3.31602709 36.8645496,3.13544018 C36.6839491,2.95485327 36.3913764,2.95485327 36.2107759,3.13544018 Z" id="Path" fill="#000000" fill-rule="nonzero"></path>
                            <path d="M36.0241021,12.6484498 C36.0918514,12.8631898 36.2870857,13 36.4973754,13 C36.547641,13 36.5991207,12.9920833 36.6498719,12.9752604 L39.6551211,11.9896333 C39.9164048,11.9040342 40.0601595,11.6185387 39.9758979,11.3520929 C39.892122,11.0861418 39.6128688,10.9374566 39.3501281,11.0252823 L36.3448789,12.0109094 C36.0835952,12.0965085 35.9398405,12.3820039 36.0241021,12.6484498 Z" id="Path" fill="#000000" fill-rule="nonzero"></path>
                            <path d="M27.5069619,4 C27.7213048,4 27.9203021,3.86573719 27.9893571,3.65499549 L28.9754333,0.650227334 C29.061319,0.388742586 28.9147936,0.108562992 28.6484738,0.0245576834 C28.381164,-0.0609043709 28.096281,0.0840412123 28.0106429,0.345283161 L27.0245667,3.35005132 C26.938681,3.61153607 27.0852064,3.89171566 27.3515262,3.97572097 C27.4032555,3.99223072 27.45548,4 27.5069619,4 Z" id="Path" fill="#000000" fill-rule="nonzero"></path>
                            <path d="M33.9759349,16.3228577 C33.9174223,16.1386539 33.7605691,16.0038525 33.5710177,15.9753034 L24.5111484,14.6044501 L20.4833652,6.2849945 C20.3990382,6.11121736 20.2244837,6.00074479 20.0327197,6 C20.0322279,6 20.0314904,6 20.0309987,6 C19.8399722,6 19.6651718,6.10923136 19.5801072,6.28201545 L15.5006952,14.5654744 L6.4332045,15.8568867 C6.24340725,15.8839464 6.08532478,16.0175065 6.02533706,16.2012137 C5.96534933,16.3849209 6.01378205,16.5872472 6.15047543,16.7227933 L12.6893847,23.2136172 L11.1124939,32.3314546 C11.0793039,32.5218647 11.1565012,32.7150055 11.3111418,32.8292019 C11.466274,32.9441431 11.6710682,32.9590383 11.8409515,32.8696671 L19.9614227,28.5974807 L28.0548502,32.9404193 C28.1290973,32.980388 28.2102283,33 28.2911134,33 C28.3948627,33 28.4981203,32.9677271 28.5853976,32.9041743 C28.7410215,32.790971 28.8194481,32.5983266 28.7877333,32.40742 L27.26788,23.2761769 L33.846863,16.843196 C33.9842939,16.7086429 34.0344476,16.5070614 33.9759349,16.3228577 Z M26.3771604,22.731758 C26.2581683,22.8481887 26.2035893,23.016256 26.2308788,23.181096 L27.6253478,31.5586429 L20.1998985,27.5741817 C20.1261431,27.5344612 20.0447663,27.514601 19.9636353,27.514601 C19.8837336,27.514601 19.8038319,27.5337165 19.7310599,27.5721956 L12.2797962,31.4923593 L13.7266316,23.1254873 C13.7551504,22.9608955 13.7018006,22.7925799 13.583792,22.6756528 L7.58403481,16.7198143 L15.9038915,15.5349026 C16.0681202,15.5115668 16.2104681,15.407797 16.2844694,15.2578522 L20.0270651,7.65808203 L23.7227031,15.2911181 C23.7954751,15.4413112 23.9365938,15.5458257 24.1005767,15.5704027 L32.4145329,16.8283009 L26.3771604,22.731758 Z" id="Shape" fill="#000000" fill-rule="nonzero"></path>
                        </g>
                    </g>
                </g>
            </g>
        </g>
    </g>
</svg>